


<svg xmlns="http://www.w3.org/2000/svg" xmlns:xlink="http://www.w3.org/1999/xlink" id="visChart" x="0" y="0" width="900" height="600" viewBox="0 0 900 600" xml:space="preserve">
    <g id="chartContent" transform="translate(450.000000,300.000000)">
        <g transform="translate(0,0)" opacity="1">
            <g transform="translate(0,0)" opacity="1"></g>
            <g transform="translate(0,0)" opacity="1">
                <g transform="translate(0,0)" opacity="1">
                    <g transform="translate(0,0)" opacity="1">
                        <g transform="translate(0,0)" opacity="1"></g>
                        <g transform="translate(0,0)" opacity="1">
                            <g transform="translate(0,0)" opacity="1">
                                <path id="mark1" class=" mark Symbol1 symbol" d="M -327.816 192.088 c 0 -0.9118 -0.608 -1.536 -1.536 -1.536 H -335.464 c -0.912 0 -1.536 0.912 -1.536 1.536 c 0 0.912 0.608 1.5362 1.536 1.5362 h 6.112 C -328.424 193.608 -327.816 193 -327.816 192.088 z M -291.7038 178.008 L -287.416 173.72 c 0.608 -0.608 0.608 -1.536 0 -2.144 c -0.608 -0.608 -1.5362 -0.608 -2.144 0 l -4.288 4.288 c -0.608 0.608 -0.608 1.536 0 2.144 C -293.2238 178.616 -292.008 178.616 -291.7038 178.008 z M -324.136 206.152 l -4.288 4.288 c -0.608 0.608 -0.608 1.5362 0 2.144 c 0.608 0.608 1.536 0.608 2.144 0 l 4.288 -4.288 c 0.608 -0.6082 0.608 -1.5362 0 -2.144 C -322.6 205.848 -323.528 205.544 -324.136 206.152 z M -307.912 172.184 c 0.912 0 1.5362 -0.608 1.5362 -1.536 V 164.536 c 0 -0.912 -0.608 -1.536 -1.5362 -1.536 c -0.608 0 -1.536 0.608 -1.536 1.536 v 6.112 C -309.448 171.576 -308.536 172.184 -307.912 172.184 z M -324.136 178.008 c 0.608 0.608 1.536 0.608 2.144 0 c 0.608 -0.608 0.608 -1.536 0 -2.144 L -326.28 171.576 c -0.608 -0.608 -1.536 -0.608 -2.144 0 c -0.608 0.608 -0.608 1.536 0 2.144 L -324.136 178.008 z M -280.072 190.552 h -6.1118 c -0.912 0 -1.5362 0.608 -1.5362 1.536 c 0 0.9282 0.608 1.5362 1.5362 1.5362 H -280.072 c 0.912 0 1.5362 -0.608 1.5362 -1.5362 C -278.536 191.464 -279.4638 190.552 -280.072 190.552 z M -307.912 212.28 c -0.9118 0 -1.536 0.608 -1.536 1.5362 V 219.928 c 0 0.912 0.608 1.5362 1.536 1.5362 c 0.9282 0 1.5362 -0.608 1.5362 -1.5362 v -6.1118 C -306.392 212.888 -307 212.28 -307.912 212.28 z M -291.7038 206.152 c -0.6082 -0.608 -1.5362 -0.608 -2.144 0 s -0.608 1.536 0 2.144 l 4.288 4.288 c 0.608 0.608 1.5362 0.608 2.144 0 s 0.608 -1.5362 0 -2.144 L -291.7038 206.152 z M -307.912 175.256 c -9.1838 0 -16.832 7.648 -16.832 16.832 c 0 9.184 7.648 16.832 16.832 16.832 c 9.184 0 16.832 -7.648 16.832 -16.832 C -291.08 182.904 -298.4238 175.256 -307.912 175.256 z M -307.912 205.848 c -7.648 0 -13.776 -6.1118 -13.776 -13.776 c 0 -7.664 6.112 -13.776 13.776 -13.776 c 7.664 0 13.7762 6.112 13.7762 13.776 C -294.136 199.7362 -300.2638 205.848 -307.912 205.848 z" data-datum="{&quot;_MARKID&quot;:&quot;symbol&quot;,&quot;Day&quot;:1,&quot;Weather&quot;:&quot;4_Sunny&quot;,&quot;col&quot;:&quot;_0&quot;}" stroke="none" stroke-opacity="1" stroke-width="1" stroke-linecap="round" stroke-linejoin="round" fill="rgb(0, 0, 0)" fill-opacity="1" text-anchor="start" opacity="1" cursor="pointer" pointer-events="all"></path>
                            </g>
                            <g transform="translate(0,0)" opacity="1">
                                <path id="mark2" class=" mark Symbol1 symbol" d="M -247.816 192.088 c 0 -0.9118 -0.608 -1.536 -1.536 -1.536 H -255.464 c -0.912 0 -1.536 0.912 -1.536 1.536 c 0 0.912 0.608 1.5362 1.536 1.5362 h 6.112 C -248.424 193.608 -247.816 193 -247.816 192.088 z M -211.7038 178.008 L -207.416 173.72 c 0.608 -0.608 0.608 -1.536 0 -2.144 c -0.608 -0.608 -1.5362 -0.608 -2.144 0 l -4.288 4.288 c -0.608 0.608 -0.608 1.536 0 2.144 C -213.2238 178.616 -212.008 178.616 -211.7038 178.008 z M -244.136 206.152 l -4.288 4.288 c -0.608 0.608 -0.608 1.5362 0 2.144 c 0.608 0.608 1.536 0.608 2.144 0 l 4.288 -4.288 c 0.608 -0.6082 0.608 -1.5362 0 -2.144 C -242.6 205.848 -243.528 205.544 -244.136 206.152 z M -227.912 172.184 c 0.912 0 1.5362 -0.608 1.5362 -1.536 V 164.536 c 0 -0.912 -0.608 -1.536 -1.5362 -1.536 c -0.608 0 -1.536 0.608 -1.536 1.536 v 6.112 C -229.448 171.576 -228.536 172.184 -227.912 172.184 z M -244.136 178.008 c 0.608 0.608 1.536 0.608 2.144 0 c 0.608 -0.608 0.608 -1.536 0 -2.144 L -246.28 171.576 c -0.608 -0.608 -1.536 -0.608 -2.144 0 c -0.608 0.608 -0.608 1.536 0 2.144 L -244.136 178.008 z M -200.072 190.552 h -6.1118 c -0.912 0 -1.5362 0.608 -1.5362 1.536 c 0 0.9282 0.608 1.5362 1.5362 1.5362 H -200.072 c 0.912 0 1.5362 -0.608 1.5362 -1.5362 C -198.536 191.464 -199.4638 190.552 -200.072 190.552 z M -227.912 212.28 c -0.9118 0 -1.536 0.608 -1.536 1.5362 V 219.928 c 0 0.912 0.608 1.5362 1.536 1.5362 c 0.9282 0 1.5362 -0.608 1.5362 -1.5362 v -6.1118 C -226.392 212.888 -227 212.28 -227.912 212.28 z M -211.7038 206.152 c -0.6082 -0.608 -1.5362 -0.608 -2.144 0 s -0.608 1.536 0 2.144 l 4.288 4.288 c 0.608 0.608 1.5362 0.608 2.144 0 s 0.608 -1.5362 0 -2.144 L -211.7038 206.152 z M -227.912 175.256 c -9.1838 0 -16.832 7.648 -16.832 16.832 c 0 9.184 7.648 16.832 16.832 16.832 c 9.184 0 16.832 -7.648 16.832 -16.832 C -211.08 182.904 -218.4238 175.256 -227.912 175.256 z M -227.912 205.848 c -7.648 0 -13.776 -6.1118 -13.776 -13.776 c 0 -7.664 6.112 -13.776 13.776 -13.776 c 7.664 0 13.7762 6.112 13.7762 13.776 C -214.136 199.7362 -220.2638 205.848 -227.912 205.848 z" data-datum="{&quot;_MARKID&quot;:&quot;symbol&quot;,&quot;Day&quot;:2,&quot;Weather&quot;:&quot;4_Sunny&quot;,&quot;col&quot;:&quot;_1&quot;}" stroke="none" stroke-opacity="1" stroke-width="1" stroke-linecap="round" stroke-linejoin="round" fill="rgb(0, 0, 0)" fill-opacity="1" text-anchor="start" opacity="1" cursor="pointer" pointer-events="all"></path>
                            </g>
                            <g transform="translate(0,0)" opacity="1">
                                <path id="mark3" class=" mark Symbol1 symbol" d="M -167.816 192.088 c 0 -0.9118 -0.608 -1.536 -1.536 -1.536 H -175.464 c -0.912 0 -1.536 0.912 -1.536 1.536 c 0 0.912 0.608 1.5362 1.536 1.5362 h 6.112 C -168.424 193.608 -167.816 193 -167.816 192.088 z M -131.7038 178.008 L -127.416 173.72 c 0.608 -0.608 0.608 -1.536 0 -2.144 c -0.608 -0.608 -1.5362 -0.608 -2.144 0 l -4.288 4.288 c -0.608 0.608 -0.608 1.536 0 2.144 C -133.2238 178.616 -132.008 178.616 -131.7038 178.008 z M -164.136 206.152 l -4.288 4.288 c -0.608 0.608 -0.608 1.5362 0 2.144 c 0.608 0.608 1.536 0.608 2.144 0 l 4.288 -4.288 c 0.608 -0.6082 0.608 -1.5362 0 -2.144 C -162.6 205.848 -163.528 205.544 -164.136 206.152 z M -147.912 172.184 c 0.912 0 1.5362 -0.608 1.5362 -1.536 V 164.536 c 0 -0.912 -0.608 -1.536 -1.5362 -1.536 c -0.608 0 -1.536 0.608 -1.536 1.536 v 6.112 C -149.448 171.576 -148.536 172.184 -147.912 172.184 z M -164.136 178.008 c 0.608 0.608 1.536 0.608 2.144 0 c 0.608 -0.608 0.608 -1.536 0 -2.144 L -166.28 171.576 c -0.608 -0.608 -1.536 -0.608 -2.144 0 c -0.608 0.608 -0.608 1.536 0 2.144 L -164.136 178.008 z M -120.072 190.552 h -6.1118 c -0.912 0 -1.5362 0.608 -1.5362 1.536 c 0 0.9282 0.608 1.5362 1.5362 1.5362 H -120.072 c 0.912 0 1.5362 -0.608 1.5362 -1.5362 C -118.536 191.464 -119.4638 190.552 -120.072 190.552 z M -147.912 212.28 c -0.9118 0 -1.536 0.608 -1.536 1.5362 V 219.928 c 0 0.912 0.608 1.5362 1.536 1.5362 c 0.9282 0 1.5362 -0.608 1.5362 -1.5362 v -6.1118 C -146.392 212.888 -147 212.28 -147.912 212.28 z M -131.7038 206.152 c -0.6082 -0.608 -1.5362 -0.608 -2.144 0 s -0.608 1.536 0 2.144 l 4.288 4.288 c 0.608 0.608 1.5362 0.608 2.144 0 s 0.608 -1.5362 0 -2.144 L -131.7038 206.152 z M -147.912 175.256 c -9.1838 0 -16.832 7.648 -16.832 16.832 c 0 9.184 7.648 16.832 16.832 16.832 c 9.184 0 16.832 -7.648 16.832 -16.832 C -131.08 182.904 -138.4238 175.256 -147.912 175.256 z M -147.912 205.848 c -7.648 0 -13.776 -6.1118 -13.776 -13.776 c 0 -7.664 6.112 -13.776 13.776 -13.776 c 7.664 0 13.7762 6.112 13.7762 13.776 C -134.136 199.7362 -140.2638 205.848 -147.912 205.848 z" data-datum="{&quot;_MARKID&quot;:&quot;symbol&quot;,&quot;Day&quot;:3,&quot;Weather&quot;:&quot;4_Sunny&quot;,&quot;col&quot;:&quot;_2&quot;}" stroke="none" stroke-opacity="1" stroke-width="1" stroke-linecap="round" stroke-linejoin="round" fill="rgb(0, 0, 0)" fill-opacity="1" text-anchor="start" opacity="1" cursor="pointer" pointer-events="all"></path>
                            </g>
                            <g transform="translate(0,0)" opacity="1">
                                <path id="mark4" class=" mark Symbol1 symbol" d="M -305.8941 -56.3812 C -297.3391 -56.3812 -292.4861 -50.7187 -291.7801 -43.8798 L -291.5644 -43.8798 C -286.0588 -43.8798 -281.5957 -39.4283 -281.5957 -33.9371 C -281.5957 -28.4458 -286.0588 -23.9943 -291.5644 -23.9943 H -320.2241 C -325.7296 -23.9943 -330.1927 -28.4458 -330.1927 -33.9371 C -330.1927 -39.4283 -325.7296 -43.8798 -320.224 -43.8798 L -320.0081 -43.8798 C -319.2982 -50.7635 -314.4492 -56.3812 -305.8941 -56.3812 Z M -305.8941 -52.3377 C -311.4868 -52.3377 -316.3613 -47.9279 -316.3613 -41.8367 C -316.3613 -40.8718 -317.2225 -40.1144 -318.2085 -40.1144 L -320.073 -40.1144 C -323.4777 -40.1144 -326.2378 -37.4109 -326.2378 -34.0761 C -326.2378 -30.7411 -323.4777 -28.0378 -320.073 -28.0378 H -291.7153 C -288.3106 -28.0378 -285.5506 -30.7411 -285.5506 -34.0761 C -285.5506 -37.4109 -288.3106 -40.1144 -291.7153 -40.1144 L -293.5799 -40.1144 C -294.5659 -40.1144 -295.427 -40.8718 -295.427 -41.8367 C -295.427 -48.0062 -300.3016 -52.3377 -305.8941 -52.3377 Z M -329.207 -45.1615 C -328.8147 -44.2144 -329.1943 -43.14 -330.0561 -42.6381 L -330.3029 -42.5158 L -332.8038 -41.4798 C -333.8371 -41.0519 -335.0216 -41.5424 -335.4496 -42.5757 C -335.8419 -43.5229 -335.4623 -44.5972 -334.6005 -45.0994 L -334.3537 -45.2215 L -331.8528 -46.2574 C -330.8195 -46.6854 -329.635 -46.1948 -329.207 -45.1615 Z M -311.692 -58.2112 L -312.1554 -58.0557 C -313.5974 -57.5463 -314.9169 -56.8568 -316.0981 -56.0089 C -317.5384 -56.4784 -319.1484 -56.4559 -320.659 -55.8301 C -324.0226 -54.4369 -325.6199 -50.5807 -324.2267 -47.217 C -324.063 -46.822 -323.8654 -46.4513 -323.6386 -46.1068 C -324.9676 -45.7358 -326.2122 -45.1461 -327.3283 -44.3809 C -327.5681 -44.7862 -327.7819 -45.2169 -327.9684 -45.6672 C -330.2176 -51.0973 -327.639 -57.3226 -322.2089 -59.5719 C -318.5847 -61.0731 -314.6062 -60.4236 -311.692 -58.2112 Z M -333.0592 -58.1273 L -332.7743 -58.0331 L -330.2734 -56.9972 C -329.2402 -56.5692 -328.7495 -55.3846 -329.1775 -54.3513 C -329.5666 -53.412 -330.5809 -52.9212 -331.5384 -53.1612 L -331.8233 -53.2554 L -334.3242 -54.2914 C -335.3575 -54.7193 -335.8481 -55.9039 -335.4201 -56.9371 C -335.0311 -57.8764 -334.0167 -58.3674 -333.0592 -58.1273 Z M -322.7581 -66.1906 L -322.6359 -65.9439 L -321.6 -63.4429 C -321.172 -62.4097 -321.6626 -61.2251 -322.6959 -60.7971 C -323.643 -60.4048 -324.7173 -60.7844 -325.2194 -61.6463 L -325.3416 -61.8931 L -326.3776 -64.394 C -326.8056 -65.4272 -326.3149 -66.6118 -325.2817 -67.0398 C -324.3345 -67.4321 -323.2602 -67.0525 -322.7581 -66.1906 Z M -311.0041 -67.0506 C -310.0648 -66.6615 -309.5739 -65.6472 -309.8139 -64.6897 L -309.9082 -64.4048 L -310.9441 -61.9039 C -311.3721 -60.8707 -312.5566 -60.38 -313.5899 -60.808 C -314.5292 -61.197 -315.0201 -62.2114 -314.78 -63.1689 L -314.6858 -63.4537 L -313.6498 -65.9547 C -313.2219 -66.9879 -312.0374 -67.4786 -311.0041 -67.0506 Z" data-datum="{&quot;_MARKID&quot;:&quot;symbol&quot;,&quot;Day&quot;:4,&quot;Weather&quot;:&quot;2_Partly Cloudy&quot;,&quot;col&quot;:&quot;_0&quot;}" stroke="none" stroke-opacity="1" stroke-width="1" stroke-linecap="round" stroke-linejoin="round" fill="rgb(0, 0, 0)" fill-opacity="1" text-anchor="start" opacity="1" cursor="pointer" pointer-events="all"></path>
                            </g>
                            <g transform="translate(0,0)" opacity="1">
                                <path id="mark5" class=" mark Symbol1 symbol" d="M -225.8941 -56.3812 C -217.3391 -56.3812 -212.4861 -50.7187 -211.7801 -43.8798 L -211.5644 -43.8798 C -206.0588 -43.8798 -201.5957 -39.4283 -201.5957 -33.9371 C -201.5957 -28.4458 -206.0588 -23.9943 -211.5644 -23.9943 H -240.2241 C -245.7296 -23.9943 -250.1927 -28.4458 -250.1927 -33.9371 C -250.1927 -39.4283 -245.7296 -43.8798 -240.224 -43.8798 L -240.0081 -43.8798 C -239.2982 -50.7635 -234.4492 -56.3812 -225.8941 -56.3812 Z M -225.8941 -52.3377 C -231.4868 -52.3377 -236.3613 -47.9279 -236.3613 -41.8367 C -236.3613 -40.8718 -237.2225 -40.1144 -238.2085 -40.1144 L -240.073 -40.1144 C -243.4777 -40.1144 -246.2378 -37.4109 -246.2378 -34.0761 C -246.2378 -30.7411 -243.4777 -28.0378 -240.073 -28.0378 H -211.7153 C -208.3106 -28.0378 -205.5506 -30.7411 -205.5506 -34.0761 C -205.5506 -37.4109 -208.3106 -40.1144 -211.7153 -40.1144 L -213.5799 -40.1144 C -214.5659 -40.1144 -215.427 -40.8718 -215.427 -41.8367 C -215.427 -48.0062 -220.3016 -52.3377 -225.8941 -52.3377 Z M -249.207 -45.1615 C -248.8147 -44.2144 -249.1943 -43.14 -250.0561 -42.6381 L -250.3029 -42.5158 L -252.8038 -41.4798 C -253.8371 -41.0519 -255.0216 -41.5424 -255.4496 -42.5757 C -255.8419 -43.5229 -255.4623 -44.5972 -254.6005 -45.0994 L -254.3537 -45.2215 L -251.8528 -46.2574 C -250.8195 -46.6854 -249.635 -46.1948 -249.207 -45.1615 Z M -231.692 -58.2112 L -232.1554 -58.0557 C -233.5974 -57.5463 -234.9169 -56.8568 -236.0981 -56.0089 C -237.5384 -56.4784 -239.1484 -56.4559 -240.659 -55.8301 C -244.0226 -54.4369 -245.6199 -50.5807 -244.2267 -47.217 C -244.063 -46.822 -243.8654 -46.4513 -243.6386 -46.1068 C -244.9676 -45.7358 -246.2122 -45.1461 -247.3283 -44.3809 C -247.5681 -44.7862 -247.7819 -45.2169 -247.9684 -45.6672 C -250.2176 -51.0973 -247.639 -57.3226 -242.2089 -59.5719 C -238.5847 -61.0731 -234.6062 -60.4236 -231.692 -58.2112 Z M -253.0592 -58.1273 L -252.7743 -58.0331 L -250.2734 -56.9972 C -249.2402 -56.5692 -248.7495 -55.3846 -249.1775 -54.3513 C -249.5666 -53.412 -250.5809 -52.9212 -251.5384 -53.1612 L -251.8233 -53.2554 L -254.3242 -54.2914 C -255.3575 -54.7193 -255.8481 -55.9039 -255.4201 -56.9371 C -255.0311 -57.8764 -254.0167 -58.3674 -253.0592 -58.1273 Z M -242.7581 -66.1906 L -242.6359 -65.9439 L -241.6 -63.4429 C -241.172 -62.4097 -241.6626 -61.2251 -242.6959 -60.7971 C -243.643 -60.4048 -244.7173 -60.7844 -245.2194 -61.6463 L -245.3416 -61.8931 L -246.3776 -64.394 C -246.8056 -65.4272 -246.3149 -66.6118 -245.2817 -67.0398 C -244.3345 -67.4321 -243.2602 -67.0525 -242.7581 -66.1906 Z M -231.0041 -67.0506 C -230.0648 -66.6615 -229.5739 -65.6472 -229.8139 -64.6897 L -229.9082 -64.4048 L -230.9441 -61.9039 C -231.3721 -60.8707 -232.5566 -60.38 -233.5899 -60.808 C -234.5292 -61.197 -235.0201 -62.2114 -234.78 -63.1689 L -234.6858 -63.4537 L -233.6498 -65.9547 C -233.2219 -66.9879 -232.0374 -67.4786 -231.0041 -67.0506 Z" data-datum="{&quot;_MARKID&quot;:&quot;symbol&quot;,&quot;Day&quot;:5,&quot;Weather&quot;:&quot;2_Partly Cloudy&quot;,&quot;col&quot;:&quot;_1&quot;}" stroke="none" stroke-opacity="1" stroke-width="1" stroke-linecap="round" stroke-linejoin="round" fill="rgb(0, 0, 0)" fill-opacity="1" text-anchor="start" opacity="1" cursor="pointer" pointer-events="all"></path>
                            </g>
                            <g transform="translate(0,0)" opacity="1">
                                <path id="mark6" class=" mark Symbol1 symbol" d="M -87.816 192.088 c 0 -0.9118 -0.608 -1.536 -1.536 -1.536 H -95.464 c -0.912 0 -1.536 0.912 -1.536 1.536 c 0 0.912 0.608 1.5362 1.536 1.5362 h 6.112 C -88.424 193.608 -87.816 193 -87.816 192.088 z M -51.7038 178.008 L -47.416 173.72 c 0.608 -0.608 0.608 -1.536 0 -2.144 c -0.608 -0.608 -1.5362 -0.608 -2.144 0 l -4.288 4.288 c -0.608 0.608 -0.608 1.536 0 2.144 C -53.2238 178.616 -52.008 178.616 -51.7038 178.008 z M -84.136 206.152 l -4.288 4.288 c -0.608 0.608 -0.608 1.5362 0 2.144 c 0.608 0.608 1.536 0.608 2.144 0 l 4.288 -4.288 c 0.608 -0.6082 0.608 -1.5362 0 -2.144 C -82.6 205.848 -83.528 205.544 -84.136 206.152 z M -67.912 172.184 c 0.912 0 1.5362 -0.608 1.5362 -1.536 V 164.536 c 0 -0.912 -0.608 -1.536 -1.5362 -1.536 c -0.608 0 -1.536 0.608 -1.536 1.536 v 6.112 C -69.448 171.576 -68.536 172.184 -67.912 172.184 z M -84.136 178.008 c 0.608 0.608 1.536 0.608 2.144 0 c 0.608 -0.608 0.608 -1.536 0 -2.144 L -86.28 171.576 c -0.608 -0.608 -1.536 -0.608 -2.144 0 c -0.608 0.608 -0.608 1.536 0 2.144 L -84.136 178.008 z M -40.072 190.552 h -6.1118 c -0.912 0 -1.5362 0.608 -1.5362 1.536 c 0 0.9282 0.608 1.5362 1.5362 1.5362 H -40.072 c 0.912 0 1.5362 -0.608 1.5362 -1.5362 C -38.536 191.464 -39.4638 190.552 -40.072 190.552 z M -67.912 212.28 c -0.9118 0 -1.536 0.608 -1.536 1.5362 V 219.928 c 0 0.912 0.608 1.5362 1.536 1.5362 c 0.9282 0 1.5362 -0.608 1.5362 -1.5362 v -6.1118 C -66.392 212.888 -67 212.28 -67.912 212.28 z M -51.7038 206.152 c -0.6082 -0.608 -1.5362 -0.608 -2.144 0 s -0.608 1.536 0 2.144 l 4.288 4.288 c 0.608 0.608 1.5362 0.608 2.144 0 s 0.608 -1.5362 0 -2.144 L -51.7038 206.152 z M -67.912 175.256 c -9.1838 0 -16.832 7.648 -16.832 16.832 c 0 9.184 7.648 16.832 16.832 16.832 c 9.184 0 16.832 -7.648 16.832 -16.832 C -51.08 182.904 -58.4238 175.256 -67.912 175.256 z M -67.912 205.848 c -7.648 0 -13.776 -6.1118 -13.776 -13.776 c 0 -7.664 6.112 -13.776 13.776 -13.776 c 7.664 0 13.7762 6.112 13.7762 13.776 C -54.136 199.7362 -60.2638 205.848 -67.912 205.848 z" data-datum="{&quot;_MARKID&quot;:&quot;symbol&quot;,&quot;Day&quot;:6,&quot;Weather&quot;:&quot;4_Sunny&quot;,&quot;col&quot;:&quot;_3&quot;}" stroke="none" stroke-opacity="1" stroke-width="1" stroke-linecap="round" stroke-linejoin="round" fill="rgb(0, 0, 0)" fill-opacity="1" text-anchor="start" opacity="1" cursor="pointer" pointer-events="all"></path>
                            </g>
                            <g transform="translate(0,0)" opacity="1">
                                <path id="mark7" class=" mark Symbol1 symbol" d="M -7.816 192.088 c 0 -0.9118 -0.608 -1.536 -1.536 -1.536 H -15.464 c -0.912 0 -1.536 0.912 -1.536 1.536 c 0 0.912 0.608 1.5362 1.536 1.5362 h 6.112 C -8.424 193.608 -7.816 193 -7.816 192.088 z M 28.2962 178.008 L 32.584 173.72 c 0.608 -0.608 0.608 -1.536 0 -2.144 c -0.608 -0.608 -1.5362 -0.608 -2.144 0 l -4.288 4.288 c -0.608 0.608 -0.608 1.536 0 2.144 C 26.7762 178.616 27.992 178.616 28.2962 178.008 z M -4.136 206.152 l -4.288 4.288 c -0.608 0.608 -0.608 1.5362 0 2.144 c 0.608 0.608 1.536 0.608 2.144 0 l 4.288 -4.288 c 0.608 -0.6082 0.608 -1.5362 0 -2.144 C -2.6 205.848 -3.528 205.544 -4.136 206.152 z M 12.088 172.184 c 0.912 0 1.5362 -0.608 1.5362 -1.536 V 164.536 c 0 -0.912 -0.608 -1.536 -1.5362 -1.536 c -0.608 0 -1.536 0.608 -1.536 1.536 v 6.112 C 10.552 171.576 11.464 172.184 12.088 172.184 z M -4.136 178.008 c 0.608 0.608 1.536 0.608 2.144 0 c 0.608 -0.608 0.608 -1.536 0 -2.144 L -6.28 171.576 c -0.608 -0.608 -1.536 -0.608 -2.144 0 c -0.608 0.608 -0.608 1.536 0 2.144 L -4.136 178.008 z M 39.928 190.552 h -6.1118 c -0.912 0 -1.5362 0.608 -1.5362 1.536 c 0 0.9282 0.608 1.5362 1.5362 1.5362 H 39.928 c 0.912 0 1.5362 -0.608 1.5362 -1.5362 C 41.464 191.464 40.5362 190.552 39.928 190.552 z M 12.088 212.28 c -0.9118 0 -1.536 0.608 -1.536 1.5362 V 219.928 c 0 0.912 0.608 1.5362 1.536 1.5362 c 0.9282 0 1.5362 -0.608 1.5362 -1.5362 v -6.1118 C 13.608 212.888 13 212.28 12.088 212.28 z M 28.2962 206.152 c -0.6082 -0.608 -1.5362 -0.608 -2.144 0 s -0.608 1.536 0 2.144 l 4.288 4.288 c 0.608 0.608 1.5362 0.608 2.144 0 s 0.608 -1.5362 0 -2.144 L 28.2962 206.152 z M 12.088 175.256 c -9.1838 0 -16.832 7.648 -16.832 16.832 c 0 9.184 7.648 16.832 16.832 16.832 c 9.184 0 16.832 -7.648 16.832 -16.832 C 28.92 182.904 21.5762 175.256 12.088 175.256 z M 12.088 205.848 c -7.648 0 -13.776 -6.1118 -13.776 -13.776 c 0 -7.664 6.112 -13.776 13.776 -13.776 c 7.664 0 13.7762 6.112 13.7762 13.776 C 25.864 199.7362 19.7362 205.848 12.088 205.848 z" data-datum="{&quot;_MARKID&quot;:&quot;symbol&quot;,&quot;Day&quot;:7,&quot;Weather&quot;:&quot;4_Sunny&quot;,&quot;col&quot;:&quot;_4&quot;}" stroke="none" stroke-opacity="1" stroke-width="1" stroke-linecap="round" stroke-linejoin="round" fill="rgb(0, 0, 0)" fill-opacity="1" text-anchor="start" opacity="1" cursor="pointer" pointer-events="all"></path>
                            </g>
                            <g transform="translate(0,0)" opacity="1">
                                <path id="mark8" class=" mark Symbol1 symbol" d="M 72.184 192.088 c 0 -0.9118 -0.608 -1.536 -1.536 -1.536 H 64.536 c -0.912 0 -1.536 0.912 -1.536 1.536 c 0 0.912 0.608 1.5362 1.536 1.5362 h 6.112 C 71.576 193.608 72.184 193 72.184 192.088 z M 108.2962 178.008 L 112.584 173.72 c 0.608 -0.608 0.608 -1.536 0 -2.144 c -0.608 -0.608 -1.5362 -0.608 -2.144 0 l -4.288 4.288 c -0.608 0.608 -0.608 1.536 0 2.144 C 106.7762 178.616 107.992 178.616 108.2962 178.008 z M 75.864 206.152 l -4.288 4.288 c -0.608 0.608 -0.608 1.5362 0 2.144 c 0.608 0.608 1.536 0.608 2.144 0 l 4.288 -4.288 c 0.608 -0.6082 0.608 -1.5362 0 -2.144 C 77.4 205.848 76.472 205.544 75.864 206.152 z M 92.088 172.184 c 0.912 0 1.5362 -0.608 1.5362 -1.536 V 164.536 c 0 -0.912 -0.608 -1.536 -1.5362 -1.536 c -0.608 0 -1.536 0.608 -1.536 1.536 v 6.112 C 90.552 171.576 91.464 172.184 92.088 172.184 z M 75.864 178.008 c 0.608 0.608 1.536 0.608 2.144 0 c 0.608 -0.608 0.608 -1.536 0 -2.144 L 73.72 171.576 c -0.608 -0.608 -1.536 -0.608 -2.144 0 c -0.608 0.608 -0.608 1.536 0 2.144 L 75.864 178.008 z M 119.928 190.552 h -6.1118 c -0.912 0 -1.5362 0.608 -1.5362 1.536 c 0 0.9282 0.608 1.5362 1.5362 1.5362 H 119.928 c 0.912 0 1.5362 -0.608 1.5362 -1.5362 C 121.464 191.464 120.5362 190.552 119.928 190.552 z M 92.088 212.28 c -0.9118 0 -1.536 0.608 -1.536 1.5362 V 219.928 c 0 0.912 0.608 1.5362 1.536 1.5362 c 0.9282 0 1.5362 -0.608 1.5362 -1.5362 v -6.1118 C 93.608 212.888 93 212.28 92.088 212.28 z M 108.2962 206.152 c -0.6082 -0.608 -1.5362 -0.608 -2.144 0 s -0.608 1.536 0 2.144 l 4.288 4.288 c 0.608 0.608 1.5362 0.608 2.144 0 s 0.608 -1.5362 0 -2.144 L 108.2962 206.152 z M 92.088 175.256 c -9.1838 0 -16.832 7.648 -16.832 16.832 c 0 9.184 7.648 16.832 16.832 16.832 c 9.184 0 16.832 -7.648 16.832 -16.832 C 108.92 182.904 101.5762 175.256 92.088 175.256 z M 92.088 205.848 c -7.648 0 -13.776 -6.1118 -13.776 -13.776 c 0 -7.664 6.112 -13.776 13.776 -13.776 c 7.664 0 13.7762 6.112 13.7762 13.776 C 105.864 199.7362 99.7362 205.848 92.088 205.848 z" data-datum="{&quot;_MARKID&quot;:&quot;symbol&quot;,&quot;Day&quot;:8,&quot;Weather&quot;:&quot;4_Sunny&quot;,&quot;col&quot;:&quot;_5&quot;}" stroke="none" stroke-opacity="1" stroke-width="1" stroke-linecap="round" stroke-linejoin="round" fill="rgb(0, 0, 0)" fill-opacity="1" text-anchor="start" opacity="1" cursor="pointer" pointer-events="all"></path>
                            </g>
                            <g transform="translate(0,0)" opacity="1">
                                <path id="mark9" class=" mark Symbol1 symbol" d="M -145.8941 -56.3812 C -137.3391 -56.3812 -132.4861 -50.7187 -131.7801 -43.8798 L -131.5644 -43.8798 C -126.0588 -43.8798 -121.5957 -39.4283 -121.5957 -33.9371 C -121.5957 -28.4458 -126.0588 -23.9943 -131.5644 -23.9943 H -160.2241 C -165.7296 -23.9943 -170.1927 -28.4458 -170.1927 -33.9371 C -170.1927 -39.4283 -165.7296 -43.8798 -160.224 -43.8798 L -160.0081 -43.8798 C -159.2982 -50.7635 -154.4492 -56.3812 -145.8941 -56.3812 Z M -145.8941 -52.3377 C -151.4868 -52.3377 -156.3613 -47.9279 -156.3613 -41.8367 C -156.3613 -40.8718 -157.2225 -40.1144 -158.2085 -40.1144 L -160.073 -40.1144 C -163.4777 -40.1144 -166.2378 -37.4109 -166.2378 -34.0761 C -166.2378 -30.7411 -163.4777 -28.0378 -160.073 -28.0378 H -131.7153 C -128.3106 -28.0378 -125.5506 -30.7411 -125.5506 -34.0761 C -125.5506 -37.4109 -128.3106 -40.1144 -131.7153 -40.1144 L -133.5799 -40.1144 C -134.5659 -40.1144 -135.427 -40.8718 -135.427 -41.8367 C -135.427 -48.0062 -140.3016 -52.3377 -145.8941 -52.3377 Z M -169.207 -45.1615 C -168.8147 -44.2144 -169.1943 -43.14 -170.0561 -42.6381 L -170.3029 -42.5158 L -172.8038 -41.4798 C -173.8371 -41.0519 -175.0216 -41.5424 -175.4496 -42.5757 C -175.8419 -43.5229 -175.4623 -44.5972 -174.6005 -45.0994 L -174.3537 -45.2215 L -171.8528 -46.2574 C -170.8195 -46.6854 -169.635 -46.1948 -169.207 -45.1615 Z M -151.692 -58.2112 L -152.1554 -58.0557 C -153.5974 -57.5463 -154.9169 -56.8568 -156.0981 -56.0089 C -157.5384 -56.4784 -159.1484 -56.4559 -160.659 -55.8301 C -164.0226 -54.4369 -165.6199 -50.5807 -164.2267 -47.217 C -164.063 -46.822 -163.8654 -46.4513 -163.6386 -46.1068 C -164.9676 -45.7358 -166.2122 -45.1461 -167.3283 -44.3809 C -167.5681 -44.7862 -167.7819 -45.2169 -167.9684 -45.6672 C -170.2176 -51.0973 -167.639 -57.3226 -162.2089 -59.5719 C -158.5847 -61.0731 -154.6062 -60.4236 -151.692 -58.2112 Z M -173.0592 -58.1273 L -172.7743 -58.0331 L -170.2734 -56.9972 C -169.2402 -56.5692 -168.7495 -55.3846 -169.1775 -54.3513 C -169.5666 -53.412 -170.5809 -52.9212 -171.5384 -53.1612 L -171.8233 -53.2554 L -174.3242 -54.2914 C -175.3575 -54.7193 -175.8481 -55.9039 -175.4201 -56.9371 C -175.0311 -57.8764 -174.0167 -58.3674 -173.0592 -58.1273 Z M -162.7581 -66.1906 L -162.6359 -65.9439 L -161.6 -63.4429 C -161.172 -62.4097 -161.6626 -61.2251 -162.6959 -60.7971 C -163.643 -60.4048 -164.7173 -60.7844 -165.2194 -61.6463 L -165.3416 -61.8931 L -166.3776 -64.394 C -166.8056 -65.4272 -166.3149 -66.6118 -165.2817 -67.0398 C -164.3345 -67.4321 -163.2602 -67.0525 -162.7581 -66.1906 Z M -151.0041 -67.0506 C -150.0648 -66.6615 -149.5739 -65.6472 -149.8139 -64.6897 L -149.9082 -64.4048 L -150.9441 -61.9039 C -151.3721 -60.8707 -152.5566 -60.38 -153.5899 -60.808 C -154.5292 -61.197 -155.0201 -62.2114 -154.78 -63.1689 L -154.6858 -63.4537 L -153.6498 -65.9547 C -153.2219 -66.9879 -152.0374 -67.4786 -151.0041 -67.0506 Z" data-datum="{&quot;_MARKID&quot;:&quot;symbol&quot;,&quot;Day&quot;:9,&quot;Weather&quot;:&quot;2_Partly Cloudy&quot;,&quot;col&quot;:&quot;_2&quot;}" stroke="none" stroke-opacity="1" stroke-width="1" stroke-linecap="round" stroke-linejoin="round" fill="rgb(0, 0, 0)" fill-opacity="1" text-anchor="start" opacity="1" cursor="pointer" pointer-events="all"></path>
                            </g>
                            <g transform="translate(0,0)" opacity="1">
                                <path id="mark10" class=" mark Symbol1 symbol" d="M -331.664 -155.76 c 0 -2.376 0.744 -4.512 2.232 -6.36 s 3.384 -3.048 5.712 -3.576 c 0.624 -2.808 2.04 -5.136 4.272 -6.912 c 2.232 -1.8 4.8 -2.688 7.728 -2.688 c 2.832 0 5.376 0.864 7.584 2.616 c 2.232 1.752 3.672 3.984 4.32 6.72 h 0.648 c 2.832 0 5.232 0.984 7.224 2.976 s 3 4.392 3 7.2 c 0 2.832 -1.008 5.232 -3 7.224 s -4.392 3 -7.224 3 H -321.416 c -1.392 0 -2.712 -0.264 -3.96 -0.816 S -327.752 -147.6 -328.664 -148.512 c -0.912 -0.912 -1.632 -2.016 -2.184 -3.264 S -331.664 -154.392 -331.664 -155.76 z M -328.184 -155.76 c 0 1.824 0.672 3.408 1.968 4.704 s 2.904 1.968 4.776 1.968 h 22.272 c 1.848 0 3.456 -0.648 4.776 -1.968 c 1.32 -1.32 1.992 -2.88 1.992 -4.704 c 0 -1.824 -0.648 -3.408 -1.992 -4.704 c -1.32 -1.296 -2.904 -1.968 -4.776 -1.968 h -3.336 c -0.24 0 -0.36 -0.12 -0.36 -0.36 l -0.168 -1.176 c -0.24 -2.256 -1.2 -4.152 -2.856 -5.64 s -3.624 -2.232 -5.88 -2.232 c -2.256 0 -4.224 0.744 -5.904 2.256 c -1.68 1.488 -2.616 3.384 -2.832 5.616 l -0.168 1.008 c 0 0.24 -0.12 0.36 -0.384 0.36 l -1.08 0.168 c -1.728 0.144 -3.168 0.864 -4.344 2.136 C -327.584 -159.024 -328.184 -157.512 -328.184 -155.76 z M -306.944 -176.688 c -0.24 0.216 -0.192 0.384 0.168 0.504 c 1.032 0.456 1.896 0.888 2.592 1.32 c 0.264 0.072 0.456 0.048 0.528 -0.072 c 1.464 -1.368 3.144 -2.064 5.088 -2.064 c 1.944 0 3.6 0.648 5.04 1.944 c 1.416 1.296 2.208 2.904 2.376 4.8 l 0.216 1.536 h 3.408 c 1.56 0 2.904 0.552 4.032 1.68 c 1.128 1.128 1.68 2.448 1.68 3.984 c 0 1.44 -0.504 2.688 -1.488 3.768 s -2.208 1.68 -3.672 1.848 c -0.24 0 -0.36 0.12 -0.36 0.384 v 2.712 c 0 0.264 0.12 0.384 0.36 0.384 c 2.424 -0.144 4.464 -1.104 6.12 -2.856 s 2.496 -3.84 2.496 -6.24 c 0 -2.544 -0.888 -4.704 -2.688 -6.48 c -1.8 -1.8 -3.96 -2.688 -6.48 -2.688 h -0.36 c -0.624 -2.4 -1.944 -4.368 -3.96 -5.928 c -1.992 -1.56 -4.248 -2.328 -6.72 -2.328 C -301.928 -180.504 -304.736 -179.232 -306.944 -176.688 z" data-datum="{&quot;_MARKID&quot;:&quot;symbol&quot;,&quot;Day&quot;:10,&quot;Weather&quot;:&quot;1_Cloudy&quot;,&quot;col&quot;:&quot;_0&quot;}" stroke="none" stroke-opacity="1" stroke-width="1" stroke-linecap="round" stroke-linejoin="round" fill="rgb(0, 0, 0)" fill-opacity="1" text-anchor="start" opacity="1" cursor="pointer" pointer-events="all"></path>
                            </g>
                            <g transform="translate(0,0)" opacity="1">
                                <path id="mark11" class=" mark Symbol1 symbol" d="M -65.8941 -56.3812 C -57.3391 -56.3812 -52.4861 -50.7187 -51.7801 -43.8798 L -51.5644 -43.8798 C -46.0588 -43.8798 -41.5957 -39.4283 -41.5957 -33.9371 C -41.5957 -28.4458 -46.0588 -23.9943 -51.5644 -23.9943 H -80.2241 C -85.7296 -23.9943 -90.1927 -28.4458 -90.1927 -33.9371 C -90.1927 -39.4283 -85.7296 -43.8798 -80.224 -43.8798 L -80.0081 -43.8798 C -79.2982 -50.7635 -74.4492 -56.3812 -65.8941 -56.3812 Z M -65.8941 -52.3377 C -71.4868 -52.3377 -76.3613 -47.9279 -76.3613 -41.8367 C -76.3613 -40.8718 -77.2225 -40.1144 -78.2085 -40.1144 L -80.073 -40.1144 C -83.4777 -40.1144 -86.2378 -37.4109 -86.2378 -34.0761 C -86.2378 -30.7411 -83.4777 -28.0378 -80.073 -28.0378 H -51.7153 C -48.3106 -28.0378 -45.5506 -30.7411 -45.5506 -34.0761 C -45.5506 -37.4109 -48.3106 -40.1144 -51.7153 -40.1144 L -53.5799 -40.1144 C -54.5659 -40.1144 -55.427 -40.8718 -55.427 -41.8367 C -55.427 -48.0062 -60.3016 -52.3377 -65.8941 -52.3377 Z M -89.207 -45.1615 C -88.8147 -44.2144 -89.1943 -43.14 -90.0561 -42.6381 L -90.3029 -42.5158 L -92.8038 -41.4798 C -93.8371 -41.0519 -95.0216 -41.5424 -95.4496 -42.5757 C -95.8419 -43.5229 -95.4623 -44.5972 -94.6005 -45.0994 L -94.3537 -45.2215 L -91.8528 -46.2574 C -90.8195 -46.6854 -89.635 -46.1948 -89.207 -45.1615 Z M -71.692 -58.2112 L -72.1554 -58.0557 C -73.5974 -57.5463 -74.9169 -56.8568 -76.0981 -56.0089 C -77.5384 -56.4784 -79.1484 -56.4559 -80.659 -55.8301 C -84.0226 -54.4369 -85.6199 -50.5807 -84.2267 -47.217 C -84.063 -46.822 -83.8654 -46.4513 -83.6386 -46.1068 C -84.9676 -45.7358 -86.2122 -45.1461 -87.3283 -44.3809 C -87.5681 -44.7862 -87.7819 -45.2169 -87.9684 -45.6672 C -90.2176 -51.0973 -87.639 -57.3226 -82.2089 -59.5719 C -78.5847 -61.0731 -74.6062 -60.4236 -71.692 -58.2112 Z M -93.0592 -58.1273 L -92.7743 -58.0331 L -90.2734 -56.9972 C -89.2402 -56.5692 -88.7495 -55.3846 -89.1775 -54.3513 C -89.5666 -53.412 -90.5809 -52.9212 -91.5384 -53.1612 L -91.8233 -53.2554 L -94.3242 -54.2914 C -95.3575 -54.7193 -95.8481 -55.9039 -95.4201 -56.9371 C -95.0311 -57.8764 -94.0167 -58.3674 -93.0592 -58.1273 Z M -82.7581 -66.1906 L -82.6359 -65.9439 L -81.6 -63.4429 C -81.172 -62.4097 -81.6626 -61.2251 -82.6959 -60.7971 C -83.643 -60.4048 -84.7173 -60.7844 -85.2194 -61.6463 L -85.3416 -61.8931 L -86.3776 -64.394 C -86.8056 -65.4272 -86.3149 -66.6118 -85.2817 -67.0398 C -84.3345 -67.4321 -83.2602 -67.0525 -82.7581 -66.1906 Z M -71.0041 -67.0506 C -70.0648 -66.6615 -69.5739 -65.6472 -69.8139 -64.6897 L -69.9082 -64.4048 L -70.9441 -61.9039 C -71.3721 -60.8707 -72.5566 -60.38 -73.5899 -60.808 C -74.5292 -61.197 -75.0201 -62.2114 -74.78 -63.1689 L -74.6858 -63.4537 L -73.6498 -65.9547 C -73.2219 -66.9879 -72.0374 -67.4786 -71.0041 -67.0506 Z" data-datum="{&quot;_MARKID&quot;:&quot;symbol&quot;,&quot;Day&quot;:11,&quot;Weather&quot;:&quot;2_Partly Cloudy&quot;,&quot;col&quot;:&quot;_3&quot;}" stroke="none" stroke-opacity="1" stroke-width="1" stroke-linecap="round" stroke-linejoin="round" fill="rgb(0, 0, 0)" fill-opacity="1" text-anchor="start" opacity="1" cursor="pointer" pointer-events="all"></path>
                            </g>
                            <g transform="translate(0,0)" opacity="1">
                                <path id="mark12" class=" mark Symbol1 symbol" d="M -251.664 -155.76 c 0 -2.376 0.744 -4.512 2.232 -6.36 s 3.384 -3.048 5.712 -3.576 c 0.624 -2.808 2.04 -5.136 4.272 -6.912 c 2.232 -1.8 4.8 -2.688 7.728 -2.688 c 2.832 0 5.376 0.864 7.584 2.616 c 2.232 1.752 3.672 3.984 4.32 6.72 h 0.648 c 2.832 0 5.232 0.984 7.224 2.976 s 3 4.392 3 7.2 c 0 2.832 -1.008 5.232 -3 7.224 s -4.392 3 -7.224 3 H -241.416 c -1.392 0 -2.712 -0.264 -3.96 -0.816 S -247.752 -147.6 -248.664 -148.512 c -0.912 -0.912 -1.632 -2.016 -2.184 -3.264 S -251.664 -154.392 -251.664 -155.76 z M -248.184 -155.76 c 0 1.824 0.672 3.408 1.968 4.704 s 2.904 1.968 4.776 1.968 h 22.272 c 1.848 0 3.456 -0.648 4.776 -1.968 c 1.32 -1.32 1.992 -2.88 1.992 -4.704 c 0 -1.824 -0.648 -3.408 -1.992 -4.704 c -1.32 -1.296 -2.904 -1.968 -4.776 -1.968 h -3.336 c -0.24 0 -0.36 -0.12 -0.36 -0.36 l -0.168 -1.176 c -0.24 -2.256 -1.2 -4.152 -2.856 -5.64 s -3.624 -2.232 -5.88 -2.232 c -2.256 0 -4.224 0.744 -5.904 2.256 c -1.68 1.488 -2.616 3.384 -2.832 5.616 l -0.168 1.008 c 0 0.24 -0.12 0.36 -0.384 0.36 l -1.08 0.168 c -1.728 0.144 -3.168 0.864 -4.344 2.136 C -247.584 -159.024 -248.184 -157.512 -248.184 -155.76 z M -226.944 -176.688 c -0.24 0.216 -0.192 0.384 0.168 0.504 c 1.032 0.456 1.896 0.888 2.592 1.32 c 0.264 0.072 0.456 0.048 0.528 -0.072 c 1.464 -1.368 3.144 -2.064 5.088 -2.064 c 1.944 0 3.6 0.648 5.04 1.944 c 1.416 1.296 2.208 2.904 2.376 4.8 l 0.216 1.536 h 3.408 c 1.56 0 2.904 0.552 4.032 1.68 c 1.128 1.128 1.68 2.448 1.68 3.984 c 0 1.44 -0.504 2.688 -1.488 3.768 s -2.208 1.68 -3.672 1.848 c -0.24 0 -0.36 0.12 -0.36 0.384 v 2.712 c 0 0.264 0.12 0.384 0.36 0.384 c 2.424 -0.144 4.464 -1.104 6.12 -2.856 s 2.496 -3.84 2.496 -6.24 c 0 -2.544 -0.888 -4.704 -2.688 -6.48 c -1.8 -1.8 -3.96 -2.688 -6.48 -2.688 h -0.36 c -0.624 -2.4 -1.944 -4.368 -3.96 -5.928 c -1.992 -1.56 -4.248 -2.328 -6.72 -2.328 C -221.928 -180.504 -224.736 -179.232 -226.944 -176.688 z" data-datum="{&quot;_MARKID&quot;:&quot;symbol&quot;,&quot;Day&quot;:12,&quot;Weather&quot;:&quot;1_Cloudy&quot;,&quot;col&quot;:&quot;_1&quot;}" stroke="none" stroke-opacity="1" stroke-width="1" stroke-linecap="round" stroke-linejoin="round" fill="rgb(0, 0, 0)" fill-opacity="1" text-anchor="start" opacity="1" cursor="pointer" pointer-events="all"></path>
                            </g>
                            <g transform="translate(0,0)" opacity="1">
                                <path id="mark13" class=" mark Symbol1 symbol" d="M 14.1059 -56.3812 C 22.6609 -56.3812 27.5139 -50.7187 28.2199 -43.8798 L 28.4356 -43.8798 C 33.9412 -43.8798 38.4043 -39.4283 38.4043 -33.9371 C 38.4043 -28.4458 33.9412 -23.9943 28.4356 -23.9943 H -0.2241 C -5.7296 -23.9943 -10.1927 -28.4458 -10.1927 -33.9371 C -10.1927 -39.4283 -5.7296 -43.8798 -0.224 -43.8798 L -0.0081 -43.8798 C 0.7018 -50.7635 5.5508 -56.3812 14.1059 -56.3812 Z M 14.1059 -52.3377 C 8.5132 -52.3377 3.6387 -47.9279 3.6387 -41.8367 C 3.6387 -40.8718 2.7775 -40.1144 1.7915 -40.1144 L -0.073 -40.1144 C -3.4777 -40.1144 -6.2378 -37.4109 -6.2378 -34.0761 C -6.2378 -30.7411 -3.4777 -28.0378 -0.073 -28.0378 H 28.2847 C 31.6894 -28.0378 34.4494 -30.7411 34.4494 -34.0761 C 34.4494 -37.4109 31.6894 -40.1144 28.2847 -40.1144 L 26.4201 -40.1144 C 25.4341 -40.1144 24.573 -40.8718 24.573 -41.8367 C 24.573 -48.0062 19.6984 -52.3377 14.1059 -52.3377 Z M -9.207 -45.1615 C -8.8147 -44.2144 -9.1943 -43.14 -10.0561 -42.6381 L -10.3029 -42.5158 L -12.8038 -41.4798 C -13.8371 -41.0519 -15.0216 -41.5424 -15.4496 -42.5757 C -15.8419 -43.5229 -15.4623 -44.5972 -14.6005 -45.0994 L -14.3537 -45.2215 L -11.8528 -46.2574 C -10.8195 -46.6854 -9.635 -46.1948 -9.207 -45.1615 Z M 8.308 -58.2112 L 7.8446 -58.0557 C 6.4026 -57.5463 5.0831 -56.8568 3.9019 -56.0089 C 2.4616 -56.4784 0.8516 -56.4559 -0.659 -55.8301 C -4.0226 -54.4369 -5.6199 -50.5807 -4.2267 -47.217 C -4.063 -46.822 -3.8654 -46.4513 -3.6386 -46.1068 C -4.9676 -45.7358 -6.2122 -45.1461 -7.3283 -44.3809 C -7.5681 -44.7862 -7.7819 -45.2169 -7.9684 -45.6672 C -10.2176 -51.0973 -7.639 -57.3226 -2.2089 -59.5719 C 1.4153 -61.0731 5.3938 -60.4236 8.308 -58.2112 Z M -13.0592 -58.1273 L -12.7743 -58.0331 L -10.2734 -56.9972 C -9.2402 -56.5692 -8.7495 -55.3846 -9.1775 -54.3513 C -9.5666 -53.412 -10.5809 -52.9212 -11.5384 -53.1612 L -11.8233 -53.2554 L -14.3242 -54.2914 C -15.3575 -54.7193 -15.8481 -55.9039 -15.4201 -56.9371 C -15.0311 -57.8764 -14.0167 -58.3674 -13.0592 -58.1273 Z M -2.7581 -66.1906 L -2.6359 -65.9439 L -1.6 -63.4429 C -1.172 -62.4097 -1.6626 -61.2251 -2.6959 -60.7971 C -3.643 -60.4048 -4.7173 -60.7844 -5.2194 -61.6463 L -5.3416 -61.8931 L -6.3776 -64.394 C -6.8056 -65.4272 -6.3149 -66.6118 -5.2817 -67.0398 C -4.3345 -67.4321 -3.2602 -67.0525 -2.7581 -66.1906 Z M 8.9959 -67.0506 C 9.9352 -66.6615 10.4261 -65.6472 10.1861 -64.6897 L 10.0918 -64.4048 L 9.0559 -61.9039 C 8.6279 -60.8707 7.4434 -60.38 6.4101 -60.808 C 5.4708 -61.197 4.9799 -62.2114 5.22 -63.1689 L 5.3142 -63.4537 L 6.3502 -65.9547 C 6.7781 -66.9879 7.9626 -67.4786 8.9959 -67.0506 Z" data-datum="{&quot;_MARKID&quot;:&quot;symbol&quot;,&quot;Day&quot;:13,&quot;Weather&quot;:&quot;2_Partly Cloudy&quot;,&quot;col&quot;:&quot;_4&quot;}" stroke="none" stroke-opacity="1" stroke-width="1" stroke-linecap="round" stroke-linejoin="round" fill="rgb(0, 0, 0)" fill-opacity="1" text-anchor="start" opacity="1" cursor="pointer" pointer-events="all"></path>
                            </g>
                            <g transform="translate(0,0)" opacity="1">
                                <path id="mark14" class=" mark Symbol1 symbol" d="M 1536.0044 -63.9861 C 1542.3414 -63.9861 1545.9362 -59.7916 1546.4592 -54.7258 L 1546.619 -54.7258 C 1550.6972 -54.7258 1554.0032 -51.4284 1554.0032 -47.3608 C 1554.0032 -43.2932 1550.6972 -39.9958 1546.619 -39.9958 H 1525.3896 C 1521.3114 -39.9958 1518.0054 -43.2932 1518.0054 -47.3608 C 1518.0054 -51.4284 1521.3114 -54.7258 1525.3896 -54.7258 L 1525.5495 -54.7258 C 1526.0754 -59.8248 1529.6673 -63.9861 1536.0044 -63.9861 Z M 1536.0044 -60.9909 C 1531.8616 -60.9909 1528.2509 -57.7244 1528.2509 -53.2124 C 1528.2509 -52.4976 1527.613 -51.9366 1526.8826 -51.9366 L 1525.5015 -51.9366 C 1522.9795 -51.9366 1520.935 -49.934 1520.935 -47.4638 C 1520.935 -44.9934 1522.9795 -42.991 1525.5015 -42.991 H 1546.5072 C 1549.0292 -42.991 1551.0736 -44.9934 1551.0736 -47.4638 C 1551.0736 -49.934 1549.0292 -51.9366 1546.5072 -51.9366 L 1545.126 -51.9366 C 1544.3956 -51.9366 1543.7578 -52.4976 1543.7578 -53.2124 C 1543.7578 -57.7824 1540.147 -60.9909 1536.0044 -60.9909 Z M 1518.7356 -55.6752 C 1519.0262 -54.9736 1518.745 -54.1778 1518.1066 -53.806 L 1517.9238 -53.7154 L 1516.0712 -52.948 C 1515.3059 -52.631 1514.4284 -52.9944 1514.1114 -53.7598 C 1513.8208 -54.4614 1514.102 -55.2572 1514.7404 -55.6292 L 1514.9232 -55.7196 L 1516.7757 -56.487 C 1517.5411 -56.804 1518.4185 -56.4406 1518.7356 -55.6752 Z M 1531.7096 -65.3416 L 1531.3664 -65.2265 C 1530.2982 -64.8491 1529.3208 -64.3383 1528.4458 -63.7103 C 1527.379 -64.0581 1526.1864 -64.0414 1525.0674 -63.5779 C 1522.5758 -62.5458 1521.3926 -59.6894 1522.4247 -57.1978 C 1522.5459 -56.9052 1522.6923 -56.6306 1522.8603 -56.3754 C 1521.8759 -56.1006 1520.9539 -55.6638 1520.1272 -55.097 C 1519.9496 -55.3972 1519.7912 -55.7162 1519.653 -56.0498 C 1517.987 -60.0721 1519.897 -64.6834 1523.9194 -66.3495 C 1526.604 -67.4615 1529.5509 -66.9805 1531.7096 -65.3416 Z M 1515.8821 -65.2795 L 1516.0931 -65.2097 L 1517.9456 -64.4423 C 1518.711 -64.1253 1519.0744 -63.2479 1518.7574 -62.4825 C 1518.4692 -61.7867 1517.7178 -61.4231 1517.0086 -61.6009 L 1516.7976 -61.6707 L 1514.945 -62.438 C 1514.1797 -62.7551 1513.8162 -63.6325 1514.1332 -64.3979 C 1514.4214 -65.0937 1515.1728 -65.4573 1515.8821 -65.2795 Z M 1523.5125 -71.2523 L 1523.6031 -71.0695 L 1524.3704 -69.217 C 1524.6874 -68.4516 1524.324 -67.5742 1523.5586 -67.2571 C 1522.857 -66.9665 1522.0613 -67.2477 1521.6893 -67.8861 L 1521.5988 -68.0689 L 1520.8314 -69.9215 C 1520.5144 -70.6868 1520.8779 -71.5643 1521.6432 -71.8813 C 1522.3448 -72.1719 1523.1406 -71.8907 1523.5125 -71.2523 Z M 1532.2192 -71.8893 C 1532.915 -71.6011 1533.2786 -70.8498 1533.1008 -70.1405 L 1533.031 -69.9295 L 1532.2636 -68.077 C 1531.9466 -67.3116 1531.0692 -66.9481 1530.3038 -67.2652 C 1529.608 -67.5534 1529.2444 -68.3047 1529.4222 -69.014 L 1529.492 -69.225 L 1530.2594 -71.0775 C 1530.5764 -71.8429 1531.4538 -72.2064 1532.2192 -71.8893 Z" data-datum="{&quot;_MARKID&quot;:&quot;symbol&quot;,&quot;Day&quot;:14,&quot;Weather&quot;:&quot;1_Cloudy&quot;,&quot;col&quot;:&quot;_2&quot;}" stroke="none" stroke-opacity="1" stroke-width="1" stroke-linecap="round" stroke-linejoin="round" fill="rgb(0, 0, 0)" fill-opacity="1" text-anchor="start" opacity="1" cursor="pointer" pointer-events="all"></path>
                            </g>
                            <g transform="translate(0,0)" opacity="1">
                                <path id="mark15" class=" mark Symbol1 symbol" d="M 94.1059 -56.3812 C 102.6609 -56.3812 107.5139 -50.7187 108.2199 -43.8798 L 108.4356 -43.8798 C 113.9412 -43.8798 118.4043 -39.4283 118.4043 -33.9371 C 118.4043 -28.4458 113.9412 -23.9943 108.4356 -23.9943 H 79.7759 C 74.2704 -23.9943 69.8073 -28.4458 69.8073 -33.9371 C 69.8073 -39.4283 74.2704 -43.8798 79.776 -43.8798 L 79.9919 -43.8798 C 80.7018 -50.7635 85.5508 -56.3812 94.1059 -56.3812 Z M 94.1059 -52.3377 C 88.5132 -52.3377 83.6387 -47.9279 83.6387 -41.8367 C 83.6387 -40.8718 82.7775 -40.1144 81.7915 -40.1144 L 79.927 -40.1144 C 76.5223 -40.1144 73.7622 -37.4109 73.7622 -34.0761 C 73.7622 -30.7411 76.5223 -28.0378 79.927 -28.0378 H 108.2847 C 111.6894 -28.0378 114.4494 -30.7411 114.4494 -34.0761 C 114.4494 -37.4109 111.6894 -40.1144 108.2847 -40.1144 L 106.4201 -40.1144 C 105.4341 -40.1144 104.573 -40.8718 104.573 -41.8367 C 104.573 -48.0062 99.6984 -52.3377 94.1059 -52.3377 Z M 70.793 -45.1615 C 71.1853 -44.2144 70.8057 -43.14 69.9439 -42.6381 L 69.6971 -42.5158 L 67.1962 -41.4798 C 66.1629 -41.0519 64.9784 -41.5424 64.5504 -42.5757 C 64.1581 -43.5229 64.5377 -44.5972 65.3995 -45.0994 L 65.6463 -45.2215 L 68.1472 -46.2574 C 69.1805 -46.6854 70.365 -46.1948 70.793 -45.1615 Z M 88.308 -58.2112 L 87.8446 -58.0557 C 86.4026 -57.5463 85.0831 -56.8568 83.9019 -56.0089 C 82.4616 -56.4784 80.8516 -56.4559 79.341 -55.8301 C 75.9774 -54.4369 74.3801 -50.5807 75.7733 -47.217 C 75.937 -46.822 76.1346 -46.4513 76.3614 -46.1068 C 75.0324 -45.7358 73.7878 -45.1461 72.6717 -44.3809 C 72.4319 -44.7862 72.2181 -45.2169 72.0316 -45.6672 C 69.7824 -51.0973 72.361 -57.3226 77.7911 -59.5719 C 81.4153 -61.0731 85.3938 -60.4236 88.308 -58.2112 Z M 66.9408 -58.1273 L 67.2257 -58.0331 L 69.7266 -56.9972 C 70.7598 -56.5692 71.2505 -55.3846 70.8225 -54.3513 C 70.4334 -53.412 69.4191 -52.9212 68.4616 -53.1612 L 68.1767 -53.2554 L 65.6758 -54.2914 C 64.6425 -54.7193 64.1519 -55.9039 64.5799 -56.9371 C 64.9689 -57.8764 65.9833 -58.3674 66.9408 -58.1273 Z M 77.2419 -66.1906 L 77.3641 -65.9439 L 78.4 -63.4429 C 78.828 -62.4097 78.3374 -61.2251 77.3041 -60.7971 C 76.357 -60.4048 75.2827 -60.7844 74.7806 -61.6463 L 74.6584 -61.8931 L 73.6224 -64.394 C 73.1944 -65.4272 73.6851 -66.6118 74.7183 -67.0398 C 75.6655 -67.4321 76.7398 -67.0525 77.2419 -66.1906 Z M 88.9959 -67.0506 C 89.9352 -66.6615 90.4261 -65.6472 90.1861 -64.6897 L 90.0918 -64.4048 L 89.0559 -61.9039 C 88.6279 -60.8707 87.4434 -60.38 86.4101 -60.808 C 85.4708 -61.197 84.9799 -62.2114 85.22 -63.1689 L 85.3142 -63.4537 L 86.3502 -65.9547 C 86.7781 -66.9879 87.9626 -67.4786 88.9959 -67.0506 Z" data-datum="{&quot;_MARKID&quot;:&quot;symbol&quot;,&quot;Day&quot;:15,&quot;Weather&quot;:&quot;2_Partly Cloudy&quot;,&quot;col&quot;:&quot;_5&quot;}" stroke="none" stroke-opacity="1" stroke-width="1" stroke-linecap="round" stroke-linejoin="round" fill="rgb(0, 0, 0)" fill-opacity="1" text-anchor="start" opacity="1" cursor="pointer" pointer-events="all"></path>
                            </g>
                            <g transform="translate(0,0)" opacity="1">
                                <path id="mark16" class=" mark Symbol1 symbol" d="M 174.1059 -56.3812 C 182.6609 -56.3812 187.5139 -50.7187 188.2199 -43.8798 L 188.4356 -43.8798 C 193.9412 -43.8798 198.4043 -39.4283 198.4043 -33.9371 C 198.4043 -28.4458 193.9412 -23.9943 188.4356 -23.9943 H 159.7759 C 154.2704 -23.9943 149.8073 -28.4458 149.8073 -33.9371 C 149.8073 -39.4283 154.2704 -43.8798 159.776 -43.8798 L 159.9919 -43.8798 C 160.7018 -50.7635 165.5508 -56.3812 174.1059 -56.3812 Z M 174.1059 -52.3377 C 168.5132 -52.3377 163.6387 -47.9279 163.6387 -41.8367 C 163.6387 -40.8718 162.7775 -40.1144 161.7915 -40.1144 L 159.927 -40.1144 C 156.5223 -40.1144 153.7622 -37.4109 153.7622 -34.0761 C 153.7622 -30.7411 156.5223 -28.0378 159.927 -28.0378 H 188.2847 C 191.6894 -28.0378 194.4494 -30.7411 194.4494 -34.0761 C 194.4494 -37.4109 191.6894 -40.1144 188.2847 -40.1144 L 186.4201 -40.1144 C 185.4341 -40.1144 184.573 -40.8718 184.573 -41.8367 C 184.573 -48.0062 179.6984 -52.3377 174.1059 -52.3377 Z M 150.793 -45.1615 C 151.1853 -44.2144 150.8057 -43.14 149.9439 -42.6381 L 149.6971 -42.5158 L 147.1962 -41.4798 C 146.1629 -41.0519 144.9784 -41.5424 144.5504 -42.5757 C 144.1581 -43.5229 144.5377 -44.5972 145.3995 -45.0994 L 145.6463 -45.2215 L 148.1472 -46.2574 C 149.1805 -46.6854 150.365 -46.1948 150.793 -45.1615 Z M 168.308 -58.2112 L 167.8446 -58.0557 C 166.4026 -57.5463 165.0831 -56.8568 163.9019 -56.0089 C 162.4616 -56.4784 160.8516 -56.4559 159.341 -55.8301 C 155.9774 -54.4369 154.3801 -50.5807 155.7733 -47.217 C 155.937 -46.822 156.1346 -46.4513 156.3614 -46.1068 C 155.0324 -45.7358 153.7878 -45.1461 152.6717 -44.3809 C 152.4319 -44.7862 152.2181 -45.2169 152.0316 -45.6672 C 149.7824 -51.0973 152.361 -57.3226 157.7911 -59.5719 C 161.4153 -61.0731 165.3938 -60.4236 168.308 -58.2112 Z M 146.9408 -58.1273 L 147.2257 -58.0331 L 149.7266 -56.9972 C 150.7598 -56.5692 151.2505 -55.3846 150.8225 -54.3513 C 150.4334 -53.412 149.4191 -52.9212 148.4616 -53.1612 L 148.1767 -53.2554 L 145.6758 -54.2914 C 144.6425 -54.7193 144.1519 -55.9039 144.5799 -56.9371 C 144.9689 -57.8764 145.9833 -58.3674 146.9408 -58.1273 Z M 157.2419 -66.1906 L 157.3641 -65.9439 L 158.4 -63.4429 C 158.828 -62.4097 158.3374 -61.2251 157.3041 -60.7971 C 156.357 -60.4048 155.2827 -60.7844 154.7806 -61.6463 L 154.6584 -61.8931 L 153.6224 -64.394 C 153.1944 -65.4272 153.6851 -66.6118 154.7183 -67.0398 C 155.6655 -67.4321 156.7398 -67.0525 157.2419 -66.1906 Z M 168.9959 -67.0506 C 169.9352 -66.6615 170.4261 -65.6472 170.1861 -64.6897 L 170.0918 -64.4048 L 169.0559 -61.9039 C 168.6279 -60.8707 167.4434 -60.38 166.4101 -60.808 C 165.4708 -61.197 164.9799 -62.2114 165.22 -63.1689 L 165.3142 -63.4537 L 166.3502 -65.9547 C 166.7781 -66.9879 167.9626 -67.4786 168.9959 -67.0506 Z" data-datum="{&quot;_MARKID&quot;:&quot;symbol&quot;,&quot;Day&quot;:16,&quot;Weather&quot;:&quot;2_Partly Cloudy&quot;,&quot;col&quot;:&quot;_6&quot;}" stroke="none" stroke-opacity="1" stroke-width="1" stroke-linecap="round" stroke-linejoin="round" fill="rgb(0, 0, 0)" fill-opacity="1" text-anchor="start" opacity="1" cursor="pointer" pointer-events="all"></path>
                            </g>
                            <g transform="translate(0,0)" opacity="1">
                                <path id="mark17" class=" mark Symbol1 symbol" d="M -294.5057 60.9191 c -0.2625 0 -0.5254 0.0079 -0.788 0.0238 C -297.4488 55.8514 -302.6197 52.4 -308.3223 52.4 C -316.096 52.4 -322.4204 58.5992 -322.4204 66.2189 c 0 0.0268 0 0.0535 0.0002 0.0803 C -327.6344 66.6912 -331.7554 70.9799 -331.7554 76.1952 c 0 5.4725 4.5375 9.9249 10.1147 9.9249 h 27.1348 c 7.086 0 12.8511 -5.6527 12.8511 -12.6005 C -281.6546 66.5715 -287.4197 60.9191 -294.5057 60.9191 z M -294.5057 82.8201 H -321.6405 c -3.7576 0 -6.8147 -2.972 -6.8147 -6.6249 c 0 -3.6531 3.0571 -6.6253 6.8147 -6.6253 c 0.2319 0 0.4897 0.0176 0.8111 0.055 c 0.5093 0.0603 1.0173 -0.121 1.3748 -0.4888 c 0.3575 -0.3676 0.5234 -0.8807 0.4495 -1.3882 c -0.0763 -0.5234 -0.1151 -1.038 -0.1151 -1.5292 C -319.1204 60.4188 -314.2764 55.7 -308.3223 55.7 c 4.7388 0 8.9932 3.0879 10.3459 7.509 c 0.2424 0.7918 1.034 1.2822 1.8506 1.1444 c 0.5324 -0.0893 1.0773 -0.1344 1.6199 -0.1344 c 5.2664 0 9.5511 4.1723 9.5511 9.3005 C -284.9546 78.648 -289.2393 82.8201 -294.5057 82.8201 z M -291.0422 88.6248 l -4.7269 4.7269 c -0.6444 0.6444 -0.6444 1.6892 0 2.3335 c 0.3221 0.3221 0.7445 0.4833 1.1667 0.4833 c 0.4222 0 0.8446 -0.161 1.1667 -0.4833 l 4.7269 -4.7269 c 0.6444 -0.6444 0.6444 -1.6892 0 -2.3333 C -289.353 87.9804 -290.3978 87.9804 -291.0422 88.6248 z M -303.5195 95.6852 l 4.7265 -4.7269 c 0.6444 -0.6444 0.6442 -1.6892 0 -2.3335 c -0.6446 -0.6444 -1.6892 -0.6442 -2.3335 0.0002 l -4.7265 4.7269 c -0.6444 0.6444 -0.6442 1.6892 0 2.3335 c 0.3223 0.3221 0.7445 0.4831 1.1667 0.4831 C -304.264 96.1683 -303.8416 96.0073 -303.5195 95.6852 z M -313.6034 95.6852 l 4.7265 -4.7269 c 0.6444 -0.6444 0.6442 -1.6892 -0.0002 -2.3335 c -0.6446 -0.6444 -1.6892 -0.6442 -2.3335 0.0002 l -4.7265 4.7269 c -0.6444 0.6444 -0.6442 1.6892 0 2.3335 c 0.3223 0.3221 0.7445 0.4831 1.1667 0.4831 C -314.3479 96.1683 -313.9255 96.0073 -313.6034 95.6852 z M -323.6878 95.6852 l 4.7269 -4.7269 c 0.6444 -0.6444 0.6444 -1.6892 0 -2.3333 c -0.6444 -0.6444 -1.6892 -0.6444 -2.3333 0 l -4.7269 4.7269 c -0.6444 0.6444 -0.6444 1.6892 0 2.3335 c 0.3221 0.3221 0.7445 0.4833 1.1667 0.4833 C -324.4323 96.1683 -324.0101 96.0073 -323.6878 95.6852 z" data-datum="{&quot;_MARKID&quot;:&quot;symbol&quot;,&quot;Day&quot;:17,&quot;Weather&quot;:&quot;3_Rain&quot;,&quot;col&quot;:&quot;_0&quot;}" stroke="none" stroke-opacity="1" stroke-width="1" stroke-linecap="round" stroke-linejoin="round" fill="rgb(0, 0, 0)" fill-opacity="1" text-anchor="start" opacity="1" cursor="pointer" pointer-events="all"></path>
                            </g>
                            <g transform="translate(0,0)" opacity="1">
                                <path id="mark18" class=" mark Symbol1 symbol" d="M -214.5057 60.9191 c -0.2625 0 -0.5254 0.0079 -0.788 0.0238 C -217.4488 55.8514 -222.6197 52.4 -228.3223 52.4 C -236.096 52.4 -242.4204 58.5992 -242.4204 66.2189 c 0 0.0268 0 0.0535 0.0002 0.0803 C -247.6344 66.6912 -251.7554 70.9799 -251.7554 76.1952 c 0 5.4725 4.5375 9.9249 10.1147 9.9249 h 27.1348 c 7.086 0 12.8511 -5.6527 12.8511 -12.6005 C -201.6546 66.5715 -207.4197 60.9191 -214.5057 60.9191 z M -214.5057 82.8201 H -241.6405 c -3.7576 0 -6.8147 -2.972 -6.8147 -6.6249 c 0 -3.6531 3.0571 -6.6253 6.8147 -6.6253 c 0.2319 0 0.4897 0.0176 0.8111 0.055 c 0.5093 0.0603 1.0173 -0.121 1.3748 -0.4888 c 0.3575 -0.3676 0.5234 -0.8807 0.4495 -1.3882 c -0.0763 -0.5234 -0.1151 -1.038 -0.1151 -1.5292 C -239.1204 60.4188 -234.2764 55.7 -228.3223 55.7 c 4.7388 0 8.9932 3.0879 10.3459 7.509 c 0.2424 0.7918 1.034 1.2822 1.8506 1.1444 c 0.5324 -0.0893 1.0773 -0.1344 1.6199 -0.1344 c 5.2664 0 9.5511 4.1723 9.5511 9.3005 C -204.9546 78.648 -209.2393 82.8201 -214.5057 82.8201 z M -211.0422 88.6248 l -4.7269 4.7269 c -0.6444 0.6444 -0.6444 1.6892 0 2.3335 c 0.3221 0.3221 0.7445 0.4833 1.1667 0.4833 c 0.4222 0 0.8446 -0.161 1.1667 -0.4833 l 4.7269 -4.7269 c 0.6444 -0.6444 0.6444 -1.6892 0 -2.3333 C -209.353 87.9804 -210.3978 87.9804 -211.0422 88.6248 z M -223.5195 95.6852 l 4.7265 -4.7269 c 0.6444 -0.6444 0.6442 -1.6892 0 -2.3335 c -0.6446 -0.6444 -1.6892 -0.6442 -2.3335 0.0002 l -4.7265 4.7269 c -0.6444 0.6444 -0.6442 1.6892 0 2.3335 c 0.3223 0.3221 0.7445 0.4831 1.1667 0.4831 C -224.264 96.1683 -223.8416 96.0073 -223.5195 95.6852 z M -233.6034 95.6852 l 4.7265 -4.7269 c 0.6444 -0.6444 0.6442 -1.6892 -0.0002 -2.3335 c -0.6446 -0.6444 -1.6892 -0.6442 -2.3335 0.0002 l -4.7265 4.7269 c -0.6444 0.6444 -0.6442 1.6892 0 2.3335 c 0.3223 0.3221 0.7445 0.4831 1.1667 0.4831 C -234.3479 96.1683 -233.9255 96.0073 -233.6034 95.6852 z M -243.6878 95.6852 l 4.7269 -4.7269 c 0.6444 -0.6444 0.6444 -1.6892 0 -2.3333 c -0.6444 -0.6444 -1.6892 -0.6444 -2.3333 0 l -4.7269 4.7269 c -0.6444 0.6444 -0.6444 1.6892 0 2.3335 c 0.3221 0.3221 0.7445 0.4833 1.1667 0.4833 C -244.4323 96.1683 -244.0101 96.0073 -243.6878 95.6852 z" data-datum="{&quot;_MARKID&quot;:&quot;symbol&quot;,&quot;Day&quot;:18,&quot;Weather&quot;:&quot;3_Rain&quot;,&quot;col&quot;:&quot;_1&quot;}" stroke="none" stroke-opacity="1" stroke-width="1" stroke-linecap="round" stroke-linejoin="round" fill="rgb(0, 0, 0)" fill-opacity="1" text-anchor="start" opacity="1" cursor="pointer" pointer-events="all"></path>
                            </g>
                            <g transform="translate(0,0)" opacity="1">
                                <path id="mark19" class=" mark Symbol1 symbol" d="M -134.5057 60.9191 c -0.2625 0 -0.5254 0.0079 -0.788 0.0238 C -137.4488 55.8514 -142.6197 52.4 -148.3223 52.4 C -156.096 52.4 -162.4204 58.5992 -162.4204 66.2189 c 0 0.0268 0 0.0535 0.0002 0.0803 C -167.6344 66.6912 -171.7554 70.9799 -171.7554 76.1952 c 0 5.4725 4.5375 9.9249 10.1147 9.9249 h 27.1348 c 7.086 0 12.8511 -5.6527 12.8511 -12.6005 C -121.6546 66.5715 -127.4197 60.9191 -134.5057 60.9191 z M -134.5057 82.8201 H -161.6405 c -3.7576 0 -6.8147 -2.972 -6.8147 -6.6249 c 0 -3.6531 3.0571 -6.6253 6.8147 -6.6253 c 0.2319 0 0.4897 0.0176 0.8111 0.055 c 0.5093 0.0603 1.0173 -0.121 1.3748 -0.4888 c 0.3575 -0.3676 0.5234 -0.8807 0.4495 -1.3882 c -0.0763 -0.5234 -0.1151 -1.038 -0.1151 -1.5292 C -159.1204 60.4188 -154.2764 55.7 -148.3223 55.7 c 4.7388 0 8.9932 3.0879 10.3459 7.509 c 0.2424 0.7918 1.034 1.2822 1.8506 1.1444 c 0.5324 -0.0893 1.0773 -0.1344 1.6199 -0.1344 c 5.2664 0 9.5511 4.1723 9.5511 9.3005 C -124.9546 78.648 -129.2393 82.8201 -134.5057 82.8201 z M -131.0422 88.6248 l -4.7269 4.7269 c -0.6444 0.6444 -0.6444 1.6892 0 2.3335 c 0.3221 0.3221 0.7445 0.4833 1.1667 0.4833 c 0.4222 0 0.8446 -0.161 1.1667 -0.4833 l 4.7269 -4.7269 c 0.6444 -0.6444 0.6444 -1.6892 0 -2.3333 C -129.353 87.9804 -130.3978 87.9804 -131.0422 88.6248 z M -143.5195 95.6852 l 4.7265 -4.7269 c 0.6444 -0.6444 0.6442 -1.6892 0 -2.3335 c -0.6446 -0.6444 -1.6892 -0.6442 -2.3335 0.0002 l -4.7265 4.7269 c -0.6444 0.6444 -0.6442 1.6892 0 2.3335 c 0.3223 0.3221 0.7445 0.4831 1.1667 0.4831 C -144.264 96.1683 -143.8416 96.0073 -143.5195 95.6852 z M -153.6034 95.6852 l 4.7265 -4.7269 c 0.6444 -0.6444 0.6442 -1.6892 -0.0002 -2.3335 c -0.6446 -0.6444 -1.6892 -0.6442 -2.3335 0.0002 l -4.7265 4.7269 c -0.6444 0.6444 -0.6442 1.6892 0 2.3335 c 0.3223 0.3221 0.7445 0.4831 1.1667 0.4831 C -154.3479 96.1683 -153.9255 96.0073 -153.6034 95.6852 z M -163.6878 95.6852 l 4.7269 -4.7269 c 0.6444 -0.6444 0.6444 -1.6892 0 -2.3333 c -0.6444 -0.6444 -1.6892 -0.6444 -2.3333 0 l -4.7269 4.7269 c -0.6444 0.6444 -0.6444 1.6892 0 2.3335 c 0.3221 0.3221 0.7445 0.4833 1.1667 0.4833 C -164.4323 96.1683 -164.0101 96.0073 -163.6878 95.6852 z" data-datum="{&quot;_MARKID&quot;:&quot;symbol&quot;,&quot;Day&quot;:19,&quot;Weather&quot;:&quot;3_Rain&quot;,&quot;col&quot;:&quot;_2&quot;}" stroke="none" stroke-opacity="1" stroke-width="1" stroke-linecap="round" stroke-linejoin="round" fill="rgb(0, 0, 0)" fill-opacity="1" text-anchor="start" opacity="1" cursor="pointer" pointer-events="all"></path>
                            </g>
                            <g transform="translate(0,0)" opacity="1">
                                <path id="mark20" class=" mark Symbol1 symbol" d="M 254.1059 -56.3812 C 262.6609 -56.3812 267.5139 -50.7187 268.2199 -43.8798 L 268.4356 -43.8798 C 273.9412 -43.8798 278.4043 -39.4283 278.4043 -33.9371 C 278.4043 -28.4458 273.9412 -23.9943 268.4356 -23.9943 H 239.7759 C 234.2704 -23.9943 229.8073 -28.4458 229.8073 -33.9371 C 229.8073 -39.4283 234.2704 -43.8798 239.776 -43.8798 L 239.9919 -43.8798 C 240.7018 -50.7635 245.5508 -56.3812 254.1059 -56.3812 Z M 254.1059 -52.3377 C 248.5132 -52.3377 243.6387 -47.9279 243.6387 -41.8367 C 243.6387 -40.8718 242.7775 -40.1144 241.7915 -40.1144 L 239.927 -40.1144 C 236.5223 -40.1144 233.7622 -37.4109 233.7622 -34.0761 C 233.7622 -30.7411 236.5223 -28.0378 239.927 -28.0378 H 268.2847 C 271.6894 -28.0378 274.4494 -30.7411 274.4494 -34.0761 C 274.4494 -37.4109 271.6894 -40.1144 268.2847 -40.1144 L 266.4201 -40.1144 C 265.4341 -40.1144 264.573 -40.8718 264.573 -41.8367 C 264.573 -48.0062 259.6984 -52.3377 254.1059 -52.3377 Z M 230.793 -45.1615 C 231.1853 -44.2144 230.8057 -43.14 229.9439 -42.6381 L 229.6971 -42.5158 L 227.1962 -41.4798 C 226.1629 -41.0519 224.9784 -41.5424 224.5504 -42.5757 C 224.1581 -43.5229 224.5377 -44.5972 225.3995 -45.0994 L 225.6463 -45.2215 L 228.1472 -46.2574 C 229.1805 -46.6854 230.365 -46.1948 230.793 -45.1615 Z M 248.308 -58.2112 L 247.8446 -58.0557 C 246.4026 -57.5463 245.0831 -56.8568 243.9019 -56.0089 C 242.4616 -56.4784 240.8516 -56.4559 239.341 -55.8301 C 235.9774 -54.4369 234.3801 -50.5807 235.7733 -47.217 C 235.937 -46.822 236.1346 -46.4513 236.3614 -46.1068 C 235.0324 -45.7358 233.7878 -45.1461 232.6717 -44.3809 C 232.4319 -44.7862 232.2181 -45.2169 232.0316 -45.6672 C 229.7824 -51.0973 232.361 -57.3226 237.7911 -59.5719 C 241.4153 -61.0731 245.3938 -60.4236 248.308 -58.2112 Z M 226.9408 -58.1273 L 227.2257 -58.0331 L 229.7266 -56.9972 C 230.7598 -56.5692 231.2505 -55.3846 230.8225 -54.3513 C 230.4334 -53.412 229.4191 -52.9212 228.4616 -53.1612 L 228.1767 -53.2554 L 225.6758 -54.2914 C 224.6425 -54.7193 224.1519 -55.9039 224.5799 -56.9371 C 224.9689 -57.8764 225.9833 -58.3674 226.9408 -58.1273 Z M 237.2419 -66.1906 L 237.3641 -65.9439 L 238.4 -63.4429 C 238.828 -62.4097 238.3374 -61.2251 237.3041 -60.7971 C 236.357 -60.4048 235.2827 -60.7844 234.7806 -61.6463 L 234.6584 -61.8931 L 233.6224 -64.394 C 233.1944 -65.4272 233.6851 -66.6118 234.7183 -67.0398 C 235.6655 -67.4321 236.7398 -67.0525 237.2419 -66.1906 Z M 248.9959 -67.0506 C 249.9352 -66.6615 250.4261 -65.6472 250.1861 -64.6897 L 250.0918 -64.4048 L 249.0559 -61.9039 C 248.6279 -60.8707 247.4434 -60.38 246.4101 -60.808 C 245.4708 -61.197 244.9799 -62.2114 245.22 -63.1689 L 245.3142 -63.4537 L 246.3502 -65.9547 C 246.7781 -66.9879 247.9626 -67.4786 248.9959 -67.0506 Z" data-datum="{&quot;_MARKID&quot;:&quot;symbol&quot;,&quot;Day&quot;:20,&quot;Weather&quot;:&quot;2_Partly Cloudy&quot;,&quot;col&quot;:&quot;_7&quot;}" stroke="none" stroke-opacity="1" stroke-width="1" stroke-linecap="round" stroke-linejoin="round" fill="rgb(0, 0, 0)" fill-opacity="1" text-anchor="start" opacity="1" cursor="pointer" pointer-events="all"></path>
                            </g>
                            <g transform="translate(0,0)" opacity="1">
                                <path id="mark21" class=" mark Symbol1 symbol" d="M 152.184 192.088 c 0 -0.9118 -0.608 -1.536 -1.536 -1.536 H 144.536 c -0.912 0 -1.536 0.912 -1.536 1.536 c 0 0.912 0.608 1.5362 1.536 1.5362 h 6.112 C 151.576 193.608 152.184 193 152.184 192.088 z M 188.2962 178.008 L 192.584 173.72 c 0.608 -0.608 0.608 -1.536 0 -2.144 c -0.608 -0.608 -1.5362 -0.608 -2.144 0 l -4.288 4.288 c -0.608 0.608 -0.608 1.536 0 2.144 C 186.7762 178.616 187.992 178.616 188.2962 178.008 z M 155.864 206.152 l -4.288 4.288 c -0.608 0.608 -0.608 1.5362 0 2.144 c 0.608 0.608 1.536 0.608 2.144 0 l 4.288 -4.288 c 0.608 -0.6082 0.608 -1.5362 0 -2.144 C 157.4 205.848 156.472 205.544 155.864 206.152 z M 172.088 172.184 c 0.912 0 1.5362 -0.608 1.5362 -1.536 V 164.536 c 0 -0.912 -0.608 -1.536 -1.5362 -1.536 c -0.608 0 -1.536 0.608 -1.536 1.536 v 6.112 C 170.552 171.576 171.464 172.184 172.088 172.184 z M 155.864 178.008 c 0.608 0.608 1.536 0.608 2.144 0 c 0.608 -0.608 0.608 -1.536 0 -2.144 L 153.72 171.576 c -0.608 -0.608 -1.536 -0.608 -2.144 0 c -0.608 0.608 -0.608 1.536 0 2.144 L 155.864 178.008 z M 199.928 190.552 h -6.1118 c -0.912 0 -1.5362 0.608 -1.5362 1.536 c 0 0.9282 0.608 1.5362 1.5362 1.5362 H 199.928 c 0.912 0 1.5362 -0.608 1.5362 -1.5362 C 201.464 191.464 200.5362 190.552 199.928 190.552 z M 172.088 212.28 c -0.9118 0 -1.536 0.608 -1.536 1.5362 V 219.928 c 0 0.912 0.608 1.5362 1.536 1.5362 c 0.9282 0 1.5362 -0.608 1.5362 -1.5362 v -6.1118 C 173.608 212.888 173 212.28 172.088 212.28 z M 188.2962 206.152 c -0.6082 -0.608 -1.5362 -0.608 -2.144 0 s -0.608 1.536 0 2.144 l 4.288 4.288 c 0.608 0.608 1.5362 0.608 2.144 0 s 0.608 -1.5362 0 -2.144 L 188.2962 206.152 z M 172.088 175.256 c -9.1838 0 -16.832 7.648 -16.832 16.832 c 0 9.184 7.648 16.832 16.832 16.832 c 9.184 0 16.832 -7.648 16.832 -16.832 C 188.92 182.904 181.5762 175.256 172.088 175.256 z M 172.088 205.848 c -7.648 0 -13.776 -6.1118 -13.776 -13.776 c 0 -7.664 6.112 -13.776 13.776 -13.776 c 7.664 0 13.7762 6.112 13.7762 13.776 C 185.864 199.7362 179.7362 205.848 172.088 205.848 z" data-datum="{&quot;_MARKID&quot;:&quot;symbol&quot;,&quot;Day&quot;:21,&quot;Weather&quot;:&quot;4_Sunny&quot;,&quot;col&quot;:&quot;_6&quot;}" stroke="none" stroke-opacity="1" stroke-width="1" stroke-linecap="round" stroke-linejoin="round" fill="rgb(0, 0, 0)" fill-opacity="1" text-anchor="start" opacity="1" cursor="pointer" pointer-events="all"></path>
                            </g>
                            <g transform="translate(0,0)" opacity="1">
                                <path id="mark22" class=" mark Symbol1 symbol" d="M -54.5057 60.9191 c -0.2625 0 -0.5254 0.0079 -0.788 0.0238 C -57.4488 55.8514 -62.6197 52.4 -68.3223 52.4 C -76.096 52.4 -82.4204 58.5992 -82.4204 66.2189 c 0 0.0268 0 0.0535 0.0002 0.0803 C -87.6344 66.6912 -91.7554 70.9799 -91.7554 76.1952 c 0 5.4725 4.5375 9.9249 10.1147 9.9249 h 27.1348 c 7.086 0 12.8511 -5.6527 12.8511 -12.6005 C -41.6546 66.5715 -47.4197 60.9191 -54.5057 60.9191 z M -54.5057 82.8201 H -81.6405 c -3.7576 0 -6.8147 -2.972 -6.8147 -6.6249 c 0 -3.6531 3.0571 -6.6253 6.8147 -6.6253 c 0.2319 0 0.4897 0.0176 0.8111 0.055 c 0.5093 0.0603 1.0173 -0.121 1.3748 -0.4888 c 0.3575 -0.3676 0.5234 -0.8807 0.4495 -1.3882 c -0.0763 -0.5234 -0.1151 -1.038 -0.1151 -1.5292 C -79.1204 60.4188 -74.2764 55.7 -68.3223 55.7 c 4.7388 0 8.9932 3.0879 10.3459 7.509 c 0.2424 0.7918 1.034 1.2822 1.8506 1.1444 c 0.5324 -0.0893 1.0773 -0.1344 1.6199 -0.1344 c 5.2664 0 9.5511 4.1723 9.5511 9.3005 C -44.9546 78.648 -49.2393 82.8201 -54.5057 82.8201 z M -51.0422 88.6248 l -4.7269 4.7269 c -0.6444 0.6444 -0.6444 1.6892 0 2.3335 c 0.3221 0.3221 0.7445 0.4833 1.1667 0.4833 c 0.4222 0 0.8446 -0.161 1.1667 -0.4833 l 4.7269 -4.7269 c 0.6444 -0.6444 0.6444 -1.6892 0 -2.3333 C -49.353 87.9804 -50.3978 87.9804 -51.0422 88.6248 z M -63.5195 95.6852 l 4.7265 -4.7269 c 0.6444 -0.6444 0.6442 -1.6892 0 -2.3335 c -0.6446 -0.6444 -1.6892 -0.6442 -2.3335 0.0002 l -4.7265 4.7269 c -0.6444 0.6444 -0.6442 1.6892 0 2.3335 c 0.3223 0.3221 0.7445 0.4831 1.1667 0.4831 C -64.264 96.1683 -63.8416 96.0073 -63.5195 95.6852 z M -73.6034 95.6852 l 4.7265 -4.7269 c 0.6444 -0.6444 0.6442 -1.6892 -0.0002 -2.3335 c -0.6446 -0.6444 -1.6892 -0.6442 -2.3335 0.0002 l -4.7265 4.7269 c -0.6444 0.6444 -0.6442 1.6892 0 2.3335 c 0.3223 0.3221 0.7445 0.4831 1.1667 0.4831 C -74.3479 96.1683 -73.9255 96.0073 -73.6034 95.6852 z M -83.6878 95.6852 l 4.7269 -4.7269 c 0.6444 -0.6444 0.6444 -1.6892 0 -2.3333 c -0.6444 -0.6444 -1.6892 -0.6444 -2.3333 0 l -4.7269 4.7269 c -0.6444 0.6444 -0.6444 1.6892 0 2.3335 c 0.3221 0.3221 0.7445 0.4833 1.1667 0.4833 C -84.4323 96.1683 -84.0101 96.0073 -83.6878 95.6852 z" data-datum="{&quot;_MARKID&quot;:&quot;symbol&quot;,&quot;Day&quot;:22,&quot;Weather&quot;:&quot;3_Rain&quot;,&quot;col&quot;:&quot;_3&quot;}" stroke="none" stroke-opacity="1" stroke-width="1" stroke-linecap="round" stroke-linejoin="round" fill="rgb(0, 0, 0)" fill-opacity="1" text-anchor="start" opacity="1" cursor="pointer" pointer-events="all"></path>
                            </g>
                            <g transform="translate(0,0)" opacity="1">
                                <path id="mark23" class=" mark Symbol1 symbol" d="M 334.1059 -56.3812 C 342.6609 -56.3812 347.5139 -50.7187 348.2199 -43.8798 L 348.4356 -43.8798 C 353.9412 -43.8798 358.4043 -39.4283 358.4043 -33.9371 C 358.4043 -28.4458 353.9412 -23.9943 348.4356 -23.9943 H 319.7759 C 314.2704 -23.9943 309.8073 -28.4458 309.8073 -33.9371 C 309.8073 -39.4283 314.2704 -43.8798 319.776 -43.8798 L 319.9919 -43.8798 C 320.7018 -50.7635 325.5508 -56.3812 334.1059 -56.3812 Z M 334.1059 -52.3377 C 328.5132 -52.3377 323.6387 -47.9279 323.6387 -41.8367 C 323.6387 -40.8718 322.7775 -40.1144 321.7915 -40.1144 L 319.927 -40.1144 C 316.5223 -40.1144 313.7622 -37.4109 313.7622 -34.0761 C 313.7622 -30.7411 316.5223 -28.0378 319.927 -28.0378 H 348.2847 C 351.6894 -28.0378 354.4494 -30.7411 354.4494 -34.0761 C 354.4494 -37.4109 351.6894 -40.1144 348.2847 -40.1144 L 346.4201 -40.1144 C 345.4341 -40.1144 344.573 -40.8718 344.573 -41.8367 C 344.573 -48.0062 339.6984 -52.3377 334.1059 -52.3377 Z M 310.793 -45.1615 C 311.1853 -44.2144 310.8057 -43.14 309.9439 -42.6381 L 309.6971 -42.5158 L 307.1962 -41.4798 C 306.1629 -41.0519 304.9784 -41.5424 304.5504 -42.5757 C 304.1581 -43.5229 304.5377 -44.5972 305.3995 -45.0994 L 305.6463 -45.2215 L 308.1472 -46.2574 C 309.1805 -46.6854 310.365 -46.1948 310.793 -45.1615 Z M 328.308 -58.2112 L 327.8446 -58.0557 C 326.4026 -57.5463 325.0831 -56.8568 323.9019 -56.0089 C 322.4616 -56.4784 320.8516 -56.4559 319.341 -55.8301 C 315.9774 -54.4369 314.3801 -50.5807 315.7733 -47.217 C 315.937 -46.822 316.1346 -46.4513 316.3614 -46.1068 C 315.0324 -45.7358 313.7878 -45.1461 312.6717 -44.3809 C 312.4319 -44.7862 312.2181 -45.2169 312.0316 -45.6672 C 309.7824 -51.0973 312.361 -57.3226 317.7911 -59.5719 C 321.4153 -61.0731 325.3938 -60.4236 328.308 -58.2112 Z M 306.9408 -58.1273 L 307.2257 -58.0331 L 309.7266 -56.9972 C 310.7598 -56.5692 311.2505 -55.3846 310.8225 -54.3513 C 310.4334 -53.412 309.4191 -52.9212 308.4616 -53.1612 L 308.1767 -53.2554 L 305.6758 -54.2914 C 304.6425 -54.7193 304.1519 -55.9039 304.5799 -56.9371 C 304.9689 -57.8764 305.9833 -58.3674 306.9408 -58.1273 Z M 317.2419 -66.1906 L 317.3641 -65.9439 L 318.4 -63.4429 C 318.828 -62.4097 318.3374 -61.2251 317.3041 -60.7971 C 316.357 -60.4048 315.2827 -60.7844 314.7806 -61.6463 L 314.6584 -61.8931 L 313.6224 -64.394 C 313.1944 -65.4272 313.6851 -66.6118 314.7183 -67.0398 C 315.6655 -67.4321 316.7398 -67.0525 317.2419 -66.1906 Z M 328.9959 -67.0506 C 329.9352 -66.6615 330.4261 -65.6472 330.1861 -64.6897 L 330.0918 -64.4048 L 329.0559 -61.9039 C 328.6279 -60.8707 327.4434 -60.38 326.4101 -60.808 C 325.4708 -61.197 324.9799 -62.2114 325.22 -63.1689 L 325.3142 -63.4537 L 326.3502 -65.9547 C 326.7781 -66.9879 327.9626 -67.4786 328.9959 -67.0506 Z" data-datum="{&quot;_MARKID&quot;:&quot;symbol&quot;,&quot;Day&quot;:23,&quot;Weather&quot;:&quot;2_Partly Cloudy&quot;,&quot;col&quot;:&quot;_8&quot;}" stroke="none" stroke-opacity="1" stroke-width="1" stroke-linecap="round" stroke-linejoin="round" fill="rgb(0, 0, 0)" fill-opacity="1" text-anchor="start" opacity="1" cursor="pointer" pointer-events="all"></path>
                            </g>
                            <g transform="translate(0,0)" opacity="1">
                                <path id="mark24" class=" mark Symbol1 symbol" d="M 414.1059 -56.3812 C 422.6609 -56.3812 427.5139 -50.7187 428.2199 -43.8798 L 428.4356 -43.8798 C 433.9412 -43.8798 438.4043 -39.4283 438.4043 -33.9371 C 438.4043 -28.4458 433.9412 -23.9943 428.4356 -23.9943 H 399.7759 C 394.2704 -23.9943 389.8073 -28.4458 389.8073 -33.9371 C 389.8073 -39.4283 394.2704 -43.8798 399.776 -43.8798 L 399.9919 -43.8798 C 400.7018 -50.7635 405.5508 -56.3812 414.1059 -56.3812 Z M 414.1059 -52.3377 C 408.5132 -52.3377 403.6387 -47.9279 403.6387 -41.8367 C 403.6387 -40.8718 402.7775 -40.1144 401.7915 -40.1144 L 399.927 -40.1144 C 396.5223 -40.1144 393.7622 -37.4109 393.7622 -34.0761 C 393.7622 -30.7411 396.5223 -28.0378 399.927 -28.0378 H 428.2847 C 431.6894 -28.0378 434.4494 -30.7411 434.4494 -34.0761 C 434.4494 -37.4109 431.6894 -40.1144 428.2847 -40.1144 L 426.4201 -40.1144 C 425.4341 -40.1144 424.573 -40.8718 424.573 -41.8367 C 424.573 -48.0062 419.6984 -52.3377 414.1059 -52.3377 Z M 390.793 -45.1615 C 391.1853 -44.2144 390.8057 -43.14 389.9439 -42.6381 L 389.6971 -42.5158 L 387.1962 -41.4798 C 386.1629 -41.0519 384.9784 -41.5424 384.5504 -42.5757 C 384.1581 -43.5229 384.5377 -44.5972 385.3995 -45.0994 L 385.6463 -45.2215 L 388.1472 -46.2574 C 389.1805 -46.6854 390.365 -46.1948 390.793 -45.1615 Z M 408.308 -58.2112 L 407.8446 -58.0557 C 406.4026 -57.5463 405.0831 -56.8568 403.9019 -56.0089 C 402.4616 -56.4784 400.8516 -56.4559 399.341 -55.8301 C 395.9774 -54.4369 394.3801 -50.5807 395.7733 -47.217 C 395.937 -46.822 396.1346 -46.4513 396.3614 -46.1068 C 395.0324 -45.7358 393.7878 -45.1461 392.6717 -44.3809 C 392.4319 -44.7862 392.2181 -45.2169 392.0316 -45.6672 C 389.7824 -51.0973 392.361 -57.3226 397.7911 -59.5719 C 401.4153 -61.0731 405.3938 -60.4236 408.308 -58.2112 Z M 386.9408 -58.1273 L 387.2257 -58.0331 L 389.7266 -56.9972 C 390.7598 -56.5692 391.2505 -55.3846 390.8225 -54.3513 C 390.4334 -53.412 389.4191 -52.9212 388.4616 -53.1612 L 388.1767 -53.2554 L 385.6758 -54.2914 C 384.6425 -54.7193 384.1519 -55.9039 384.5799 -56.9371 C 384.9689 -57.8764 385.9833 -58.3674 386.9408 -58.1273 Z M 397.2419 -66.1906 L 397.3641 -65.9439 L 398.4 -63.4429 C 398.828 -62.4097 398.3374 -61.2251 397.3041 -60.7971 C 396.357 -60.4048 395.2827 -60.7844 394.7806 -61.6463 L 394.6584 -61.8931 L 393.6224 -64.394 C 393.1944 -65.4272 393.6851 -66.6118 394.7183 -67.0398 C 395.6655 -67.4321 396.7398 -67.0525 397.2419 -66.1906 Z M 408.9959 -67.0506 C 409.9352 -66.6615 410.4261 -65.6472 410.1861 -64.6897 L 410.0918 -64.4048 L 409.0559 -61.9039 C 408.6279 -60.8707 407.4434 -60.38 406.4101 -60.808 C 405.4708 -61.197 404.9799 -62.2114 405.22 -63.1689 L 405.3142 -63.4537 L 406.3502 -65.9547 C 406.7781 -66.9879 407.9626 -67.4786 408.9959 -67.0506 Z" data-datum="{&quot;_MARKID&quot;:&quot;symbol&quot;,&quot;Day&quot;:24,&quot;Weather&quot;:&quot;2_Partly Cloudy&quot;,&quot;col&quot;:&quot;_9&quot;}" stroke="none" stroke-opacity="1" stroke-width="1" stroke-linecap="round" stroke-linejoin="round" fill="rgb(0, 0, 0)" fill-opacity="1" text-anchor="start" opacity="1" cursor="pointer" pointer-events="all"></path>
                            </g>
                            <g transform="translate(0,0)" opacity="1">
                                <path id="mark25" class=" mark Symbol1 symbol" d="M 232.184 192.088 c 0 -0.9118 -0.608 -1.536 -1.536 -1.536 H 224.536 c -0.912 0 -1.536 0.912 -1.536 1.536 c 0 0.912 0.608 1.5362 1.536 1.5362 h 6.112 C 231.576 193.608 232.184 193 232.184 192.088 z M 268.2962 178.008 L 272.584 173.72 c 0.608 -0.608 0.608 -1.536 0 -2.144 c -0.608 -0.608 -1.5362 -0.608 -2.144 0 l -4.288 4.288 c -0.608 0.608 -0.608 1.536 0 2.144 C 266.7762 178.616 267.992 178.616 268.2962 178.008 z M 235.864 206.152 l -4.288 4.288 c -0.608 0.608 -0.608 1.5362 0 2.144 c 0.608 0.608 1.536 0.608 2.144 0 l 4.288 -4.288 c 0.608 -0.6082 0.608 -1.5362 0 -2.144 C 237.4 205.848 236.472 205.544 235.864 206.152 z M 252.088 172.184 c 0.912 0 1.5362 -0.608 1.5362 -1.536 V 164.536 c 0 -0.912 -0.608 -1.536 -1.5362 -1.536 c -0.608 0 -1.536 0.608 -1.536 1.536 v 6.112 C 250.552 171.576 251.464 172.184 252.088 172.184 z M 235.864 178.008 c 0.608 0.608 1.536 0.608 2.144 0 c 0.608 -0.608 0.608 -1.536 0 -2.144 L 233.72 171.576 c -0.608 -0.608 -1.536 -0.608 -2.144 0 c -0.608 0.608 -0.608 1.536 0 2.144 L 235.864 178.008 z M 279.928 190.552 h -6.1118 c -0.912 0 -1.5362 0.608 -1.5362 1.536 c 0 0.9282 0.608 1.5362 1.5362 1.5362 H 279.928 c 0.912 0 1.5362 -0.608 1.5362 -1.5362 C 281.464 191.464 280.5362 190.552 279.928 190.552 z M 252.088 212.28 c -0.9118 0 -1.536 0.608 -1.536 1.5362 V 219.928 c 0 0.912 0.608 1.5362 1.536 1.5362 c 0.9282 0 1.5362 -0.608 1.5362 -1.5362 v -6.1118 C 253.608 212.888 253 212.28 252.088 212.28 z M 268.2962 206.152 c -0.6082 -0.608 -1.5362 -0.608 -2.144 0 s -0.608 1.536 0 2.144 l 4.288 4.288 c 0.608 0.608 1.5362 0.608 2.144 0 s 0.608 -1.5362 0 -2.144 L 268.2962 206.152 z M 252.088 175.256 c -9.1838 0 -16.832 7.648 -16.832 16.832 c 0 9.184 7.648 16.832 16.832 16.832 c 9.184 0 16.832 -7.648 16.832 -16.832 C 268.92 182.904 261.5762 175.256 252.088 175.256 z M 252.088 205.848 c -7.648 0 -13.776 -6.1118 -13.776 -13.776 c 0 -7.664 6.112 -13.776 13.776 -13.776 c 7.664 0 13.7762 6.112 13.7762 13.776 C 265.864 199.7362 259.7362 205.848 252.088 205.848 z" data-datum="{&quot;_MARKID&quot;:&quot;symbol&quot;,&quot;Day&quot;:25,&quot;Weather&quot;:&quot;4_Sunny&quot;,&quot;col&quot;:&quot;_7&quot;}" stroke="none" stroke-opacity="1" stroke-width="1" stroke-linecap="round" stroke-linejoin="round" fill="rgb(0, 0, 0)" fill-opacity="1" text-anchor="start" opacity="1" cursor="pointer" pointer-events="all"></path>
                            </g>
                            <g transform="translate(0,0)" opacity="1">
                                <path id="mark26" class=" mark Symbol1 symbol" d="M 25.4943 60.9191 c -0.2625 0 -0.5254 0.0079 -0.788 0.0238 C 22.5512 55.8514 17.3803 52.4 11.6777 52.4 C 3.904 52.4 -2.4204 58.5992 -2.4204 66.2189 c 0 0.0268 0 0.0535 0.0002 0.0803 C -7.6344 66.6912 -11.7554 70.9799 -11.7554 76.1952 c 0 5.4725 4.5375 9.9249 10.1147 9.9249 h 27.1348 c 7.086 0 12.8511 -5.6527 12.8511 -12.6005 C 38.3454 66.5715 32.5803 60.9191 25.4943 60.9191 z M 25.4943 82.8201 H -1.6405 c -3.7576 0 -6.8147 -2.972 -6.8147 -6.6249 c 0 -3.6531 3.0571 -6.6253 6.8147 -6.6253 c 0.2319 0 0.4897 0.0176 0.8111 0.055 c 0.5093 0.0603 1.0173 -0.121 1.3748 -0.4888 c 0.3575 -0.3676 0.5234 -0.8807 0.4495 -1.3882 c -0.0763 -0.5234 -0.1151 -1.038 -0.1151 -1.5292 C 0.8796 60.4188 5.7236 55.7 11.6777 55.7 c 4.7388 0 8.9932 3.0879 10.3459 7.509 c 0.2424 0.7918 1.034 1.2822 1.8506 1.1444 c 0.5324 -0.0893 1.0773 -0.1344 1.6199 -0.1344 c 5.2664 0 9.5511 4.1723 9.5511 9.3005 C 35.0454 78.648 30.7607 82.8201 25.4943 82.8201 z M 28.9578 88.6248 l -4.7269 4.7269 c -0.6444 0.6444 -0.6444 1.6892 0 2.3335 c 0.3221 0.3221 0.7445 0.4833 1.1667 0.4833 c 0.4222 0 0.8446 -0.161 1.1667 -0.4833 l 4.7269 -4.7269 c 0.6444 -0.6444 0.6444 -1.6892 0 -2.3333 C 30.647 87.9804 29.6022 87.9804 28.9578 88.6248 z M 16.4805 95.6852 l 4.7265 -4.7269 c 0.6444 -0.6444 0.6442 -1.6892 0 -2.3335 c -0.6446 -0.6444 -1.6892 -0.6442 -2.3335 0.0002 l -4.7265 4.7269 c -0.6444 0.6444 -0.6442 1.6892 0 2.3335 c 0.3223 0.3221 0.7445 0.4831 1.1667 0.4831 C 15.736 96.1683 16.1584 96.0073 16.4805 95.6852 z M 6.3966 95.6852 l 4.7265 -4.7269 c 0.6444 -0.6444 0.6442 -1.6892 -0.0002 -2.3335 c -0.6446 -0.6444 -1.6892 -0.6442 -2.3335 0.0002 l -4.7265 4.7269 c -0.6444 0.6444 -0.6442 1.6892 0 2.3335 c 0.3223 0.3221 0.7445 0.4831 1.1667 0.4831 C 5.6521 96.1683 6.0745 96.0073 6.3966 95.6852 z M -3.6878 95.6852 l 4.7269 -4.7269 c 0.6444 -0.6444 0.6444 -1.6892 0 -2.3333 c -0.6444 -0.6444 -1.6892 -0.6444 -2.3333 0 l -4.7269 4.7269 c -0.6444 0.6444 -0.6444 1.6892 0 2.3335 c 0.3221 0.3221 0.7445 0.4833 1.1667 0.4833 C -4.4323 96.1683 -4.0101 96.0073 -3.6878 95.6852 z" data-datum="{&quot;_MARKID&quot;:&quot;symbol&quot;,&quot;Day&quot;:26,&quot;Weather&quot;:&quot;3_Rain&quot;,&quot;col&quot;:&quot;_4&quot;}" stroke="none" stroke-opacity="1" stroke-width="1" stroke-linecap="round" stroke-linejoin="round" fill="rgb(0, 0, 0)" fill-opacity="1" text-anchor="start" opacity="1" cursor="pointer" pointer-events="all"></path>
                            </g>
                            <g transform="translate(0,0)" opacity="1">
                                <path id="mark27" class=" mark Symbol1 symbol" d="M 105.4943 60.9191 c -0.2625 0 -0.5254 0.0079 -0.788 0.0238 C 102.5512 55.8514 97.3803 52.4 91.6777 52.4 C 83.904 52.4 77.5796 58.5992 77.5796 66.2189 c 0 0.0268 0 0.0535 0.0002 0.0803 C 72.3656 66.6912 68.2446 70.9799 68.2446 76.1952 c 0 5.4725 4.5375 9.9249 10.1147 9.9249 h 27.1348 c 7.086 0 12.8511 -5.6527 12.8511 -12.6005 C 118.3454 66.5715 112.5803 60.9191 105.4943 60.9191 z M 105.4943 82.8201 H 78.3595 c -3.7576 0 -6.8147 -2.972 -6.8147 -6.6249 c 0 -3.6531 3.0571 -6.6253 6.8147 -6.6253 c 0.2319 0 0.4897 0.0176 0.8111 0.055 c 0.5093 0.0603 1.0173 -0.121 1.3748 -0.4888 c 0.3575 -0.3676 0.5234 -0.8807 0.4495 -1.3882 c -0.0763 -0.5234 -0.1151 -1.038 -0.1151 -1.5292 C 80.8796 60.4188 85.7236 55.7 91.6777 55.7 c 4.7388 0 8.9932 3.0879 10.3459 7.509 c 0.2424 0.7918 1.034 1.2822 1.8506 1.1444 c 0.5324 -0.0893 1.0773 -0.1344 1.6199 -0.1344 c 5.2664 0 9.5511 4.1723 9.5511 9.3005 C 115.0454 78.648 110.7607 82.8201 105.4943 82.8201 z M 108.9578 88.6248 l -4.7269 4.7269 c -0.6444 0.6444 -0.6444 1.6892 0 2.3335 c 0.3221 0.3221 0.7445 0.4833 1.1667 0.4833 c 0.4222 0 0.8446 -0.161 1.1667 -0.4833 l 4.7269 -4.7269 c 0.6444 -0.6444 0.6444 -1.6892 0 -2.3333 C 110.647 87.9804 109.6022 87.9804 108.9578 88.6248 z M 96.4805 95.6852 l 4.7265 -4.7269 c 0.6444 -0.6444 0.6442 -1.6892 0 -2.3335 c -0.6446 -0.6444 -1.6892 -0.6442 -2.3335 0.0002 l -4.7265 4.7269 c -0.6444 0.6444 -0.6442 1.6892 0 2.3335 c 0.3223 0.3221 0.7445 0.4831 1.1667 0.4831 C 95.736 96.1683 96.1584 96.0073 96.4805 95.6852 z M 86.3966 95.6852 l 4.7265 -4.7269 c 0.6444 -0.6444 0.6442 -1.6892 -0.0002 -2.3335 c -0.6446 -0.6444 -1.6892 -0.6442 -2.3335 0.0002 l -4.7265 4.7269 c -0.6444 0.6444 -0.6442 1.6892 0 2.3335 c 0.3223 0.3221 0.7445 0.4831 1.1667 0.4831 C 85.6521 96.1683 86.0745 96.0073 86.3966 95.6852 z M 76.3122 95.6852 l 4.7269 -4.7269 c 0.6444 -0.6444 0.6444 -1.6892 0 -2.3333 c -0.6444 -0.6444 -1.6892 -0.6444 -2.3333 0 l -4.7269 4.7269 c -0.6444 0.6444 -0.6444 1.6892 0 2.3335 c 0.3221 0.3221 0.7445 0.4833 1.1667 0.4833 C 75.5677 96.1683 75.9899 96.0073 76.3122 95.6852 z" data-datum="{&quot;_MARKID&quot;:&quot;symbol&quot;,&quot;Day&quot;:27,&quot;Weather&quot;:&quot;3_Rain&quot;,&quot;col&quot;:&quot;_5&quot;}" stroke="none" stroke-opacity="1" stroke-width="1" stroke-linecap="round" stroke-linejoin="round" fill="rgb(0, 0, 0)" fill-opacity="1" text-anchor="start" opacity="1" cursor="pointer" pointer-events="all"></path>
                            </g>
                            <g transform="translate(0,0)" opacity="1">
                                <path id="mark28" class=" mark Symbol1 symbol" d="M 185.4943 60.9191 c -0.2625 0 -0.5254 0.0079 -0.788 0.0238 C 182.5512 55.8514 177.3803 52.4 171.6777 52.4 C 163.904 52.4 157.5796 58.5992 157.5796 66.2189 c 0 0.0268 0 0.0535 0.0002 0.0803 C 152.3656 66.6912 148.2446 70.9799 148.2446 76.1952 c 0 5.4725 4.5375 9.9249 10.1147 9.9249 h 27.1348 c 7.086 0 12.8511 -5.6527 12.8511 -12.6005 C 198.3454 66.5715 192.5803 60.9191 185.4943 60.9191 z M 185.4943 82.8201 H 158.3595 c -3.7576 0 -6.8147 -2.972 -6.8147 -6.6249 c 0 -3.6531 3.0571 -6.6253 6.8147 -6.6253 c 0.2319 0 0.4897 0.0176 0.8111 0.055 c 0.5093 0.0603 1.0173 -0.121 1.3748 -0.4888 c 0.3575 -0.3676 0.5234 -0.8807 0.4495 -1.3882 c -0.0763 -0.5234 -0.1151 -1.038 -0.1151 -1.5292 C 160.8796 60.4188 165.7236 55.7 171.6777 55.7 c 4.7388 0 8.9932 3.0879 10.3459 7.509 c 0.2424 0.7918 1.034 1.2822 1.8506 1.1444 c 0.5324 -0.0893 1.0773 -0.1344 1.6199 -0.1344 c 5.2664 0 9.5511 4.1723 9.5511 9.3005 C 195.0454 78.648 190.7607 82.8201 185.4943 82.8201 z M 188.9578 88.6248 l -4.7269 4.7269 c -0.6444 0.6444 -0.6444 1.6892 0 2.3335 c 0.3221 0.3221 0.7445 0.4833 1.1667 0.4833 c 0.4222 0 0.8446 -0.161 1.1667 -0.4833 l 4.7269 -4.7269 c 0.6444 -0.6444 0.6444 -1.6892 0 -2.3333 C 190.647 87.9804 189.6022 87.9804 188.9578 88.6248 z M 176.4805 95.6852 l 4.7265 -4.7269 c 0.6444 -0.6444 0.6442 -1.6892 0 -2.3335 c -0.6446 -0.6444 -1.6892 -0.6442 -2.3335 0.0002 l -4.7265 4.7269 c -0.6444 0.6444 -0.6442 1.6892 0 2.3335 c 0.3223 0.3221 0.7445 0.4831 1.1667 0.4831 C 175.736 96.1683 176.1584 96.0073 176.4805 95.6852 z M 166.3966 95.6852 l 4.7265 -4.7269 c 0.6444 -0.6444 0.6442 -1.6892 -0.0002 -2.3335 c -0.6446 -0.6444 -1.6892 -0.6442 -2.3335 0.0002 l -4.7265 4.7269 c -0.6444 0.6444 -0.6442 1.6892 0 2.3335 c 0.3223 0.3221 0.7445 0.4831 1.1667 0.4831 C 165.6521 96.1683 166.0745 96.0073 166.3966 95.6852 z M 156.3122 95.6852 l 4.7269 -4.7269 c 0.6444 -0.6444 0.6444 -1.6892 0 -2.3333 c -0.6444 -0.6444 -1.6892 -0.6444 -2.3333 0 l -4.7269 4.7269 c -0.6444 0.6444 -0.6444 1.6892 0 2.3335 c 0.3221 0.3221 0.7445 0.4833 1.1667 0.4833 C 155.5677 96.1683 155.9899 96.0073 156.3122 95.6852 z" data-datum="{&quot;_MARKID&quot;:&quot;symbol&quot;,&quot;Day&quot;:28,&quot;Weather&quot;:&quot;3_Rain&quot;,&quot;col&quot;:&quot;_6&quot;}" stroke="none" stroke-opacity="1" stroke-width="1" stroke-linecap="round" stroke-linejoin="round" fill="r g b" fill-opacity="1" text-anchor="start" opacity="1" cursor="pointer" pointer-events="all"></path>
                            </g>
                            <g transform="translate(0,0)" opacity="1">
                                <path id="mark29" class=" mark Symbol1 symbol" d="M 265.4943 60.9191 c -0.2625 0 -0.5254 0.0079 -0.788 0.0238 C 262.5512 55.8514 257.3803 52.4 251.6777 52.4 C 243.904 52.4 237.5796 58.5992 237.5796 66.2189 c 0 0.0268 0 0.0535 0.0002 0.0803 C 232.3656 66.6912 228.2446 70.9799 228.2446 76.1952 c 0 5.4725 4.5375 9.9249 10.1147 9.9249 h 27.1348 c 7.086 0 12.8511 -5.6527 12.8511 -12.6005 C 278.3454 66.5715 272.5803 60.9191 265.4943 60.9191 z M 265.4943 82.8201 H 238.3595 c -3.7576 0 -6.8147 -2.972 -6.8147 -6.6249 c 0 -3.6531 3.0571 -6.6253 6.8147 -6.6253 c 0.2319 0 0.4897 0.0176 0.8111 0.055 c 0.5093 0.0603 1.0173 -0.121 1.3748 -0.4888 c 0.3575 -0.3676 0.5234 -0.8807 0.4495 -1.3882 c -0.0763 -0.5234 -0.1151 -1.038 -0.1151 -1.5292 C 240.8796 60.4188 245.7236 55.7 251.6777 55.7 c 4.7388 0 8.9932 3.0879 10.3459 7.509 c 0.2424 0.7918 1.034 1.2822 1.8506 1.1444 c 0.5324 -0.0893 1.0773 -0.1344 1.6199 -0.1344 c 5.2664 0 9.5511 4.1723 9.5511 9.3005 C 275.0454 78.648 270.7607 82.8201 265.4943 82.8201 z M 268.9578 88.6248 l -4.7269 4.7269 c -0.6444 0.6444 -0.6444 1.6892 0 2.3335 c 0.3221 0.3221 0.7445 0.4833 1.1667 0.4833 c 0.4222 0 0.8446 -0.161 1.1667 -0.4833 l 4.7269 -4.7269 c 0.6444 -0.6444 0.6444 -1.6892 0 -2.3333 C 270.647 87.9804 269.6022 87.9804 268.9578 88.6248 z M 256.4805 95.6852 l 4.7265 -4.7269 c 0.6444 -0.6444 0.6442 -1.6892 0 -2.3335 c -0.6446 -0.6444 -1.6892 -0.6442 -2.3335 0.0002 l -4.7265 4.7269 c -0.6444 0.6444 -0.6442 1.6892 0 2.3335 c 0.3223 0.3221 0.7445 0.4831 1.1667 0.4831 C 255.736 96.1683 256.1584 96.0073 256.4805 95.6852 z M 246.3966 95.6852 l 4.7265 -4.7269 c 0.6444 -0.6444 0.6442 -1.6892 -0.0002 -2.3335 c -0.6446 -0.6444 -1.6892 -0.6442 -2.3335 0.0002 l -4.7265 4.7269 c -0.6444 0.6444 -0.6442 1.6892 0 2.3335 c 0.3223 0.3221 0.7445 0.4831 1.1667 0.4831 C 245.6521 96.1683 246.0745 96.0073 246.3966 95.6852 z M 236.3122 95.6852 l 4.7269 -4.7269 c 0.6444 -0.6444 0.6444 -1.6892 0 -2.3333 c -0.6444 -0.6444 -1.6892 -0.6444 -2.3333 0 l -4.7269 4.7269 c -0.6444 0.6444 -0.6444 1.6892 0 2.3335 c 0.3221 0.3221 0.7445 0.4833 1.1667 0.4833 C 235.5677 96.1683 235.9899 96.0073 236.3122 95.6852 z" data-datum="{&quot;_MARKID&quot;:&quot;symbol&quot;,&quot;Day&quot;:29,&quot;Weather&quot;:&quot;3_Rain&quot;,&quot;col&quot;:&quot;_7&quot;}" stroke="none" stroke-opacity="1" stroke-width="1" stroke-linecap="round" stroke-linejoin="round" fill="rgb(0, 0, 0)" fill-opacity="1" text-anchor="start" opacity="1" cursor="pointer" pointer-events="all"></path>
                            </g>
                            <g transform="translate(0,0)" opacity="1">
                                <path id="mark30" class=" mark Symbol1 symbol" d="M 345.4943 60.9191 c -0.2625 0 -0.5254 0.0079 -0.788 0.0238 C 342.5512 55.8514 337.3803 52.4 331.6777 52.4 C 323.904 52.4 317.5796 58.5992 317.5796 66.2189 c 0 0.0268 0 0.0535 0.0002 0.0803 C 312.3656 66.6912 308.2446 70.9799 308.2446 76.1952 c 0 5.4725 4.5375 9.9249 10.1147 9.9249 h 27.1348 c 7.086 0 12.8511 -5.6527 12.8511 -12.6005 C 358.3454 66.5715 352.5803 60.9191 345.4943 60.9191 z M 345.4943 82.8201 H 318.3595 c -3.7576 0 -6.8147 -2.972 -6.8147 -6.6249 c 0 -3.6531 3.0571 -6.6253 6.8147 -6.6253 c 0.2319 0 0.4897 0.0176 0.8111 0.055 c 0.5093 0.0603 1.0173 -0.121 1.3748 -0.4888 c 0.3575 -0.3676 0.5234 -0.8807 0.4495 -1.3882 c -0.0763 -0.5234 -0.1151 -1.038 -0.1151 -1.5292 C 320.8796 60.4188 325.7236 55.7 331.6777 55.7 c 4.7388 0 8.9932 3.0879 10.3459 7.509 c 0.2424 0.7918 1.034 1.2822 1.8506 1.1444 c 0.5324 -0.0893 1.0773 -0.1344 1.6199 -0.1344 c 5.2664 0 9.5511 4.1723 9.5511 9.3005 C 355.0454 78.648 350.7607 82.8201 345.4943 82.8201 z M 348.9578 88.6248 l -4.7269 4.7269 c -0.6444 0.6444 -0.6444 1.6892 0 2.3335 c 0.3221 0.3221 0.7445 0.4833 1.1667 0.4833 c 0.4222 0 0.8446 -0.161 1.1667 -0.4833 l 4.7269 -4.7269 c 0.6444 -0.6444 0.6444 -1.6892 0 -2.3333 C 350.647 87.9804 349.6022 87.9804 348.9578 88.6248 z M 336.4805 95.6852 l 4.7265 -4.7269 c 0.6444 -0.6444 0.6442 -1.6892 0 -2.3335 c -0.6446 -0.6444 -1.6892 -0.6442 -2.3335 0.0002 l -4.7265 4.7269 c -0.6444 0.6444 -0.6442 1.6892 0 2.3335 c 0.3223 0.3221 0.7445 0.4831 1.1667 0.4831 C 335.736 96.1683 336.1584 96.0073 336.4805 95.6852 z M 326.3966 95.6852 l 4.7265 -4.7269 c 0.6444 -0.6444 0.6442 -1.6892 -0.0002 -2.3335 c -0.6446 -0.6444 -1.6892 -0.6442 -2.3335 0.0002 l -4.7265 4.7269 c -0.6444 0.6444 -0.6442 1.6892 0 2.3335 c 0.3223 0.3221 0.7445 0.4831 1.1667 0.4831 C 325.6521 96.1683 326.0745 96.0073 326.3966 95.6852 z M 316.3122 95.6852 l 4.7269 -4.7269 c 0.6444 -0.6444 0.6444 -1.6892 0 -2.3333 c -0.6444 -0.6444 -1.6892 -0.6444 -2.3333 0 l -4.7269 4.7269 c -0.6444 0.6444 -0.6444 1.6892 0 2.3335 c 0.3221 0.3221 0.7445 0.4833 1.1667 0.4833 C 315.5677 96.1683 315.9899 96.0073 316.3122 95.6852 z" data-datum="{&quot;_MARKID&quot;:&quot;symbol&quot;,&quot;Day&quot;:30,&quot;Weather&quot;:&quot;3_Rain&quot;,&quot;col&quot;:&quot;_8&quot;}" stroke="none" stroke-opacity="1" stroke-width="1" stroke-linecap="round" stroke-linejoin="round" fill="rgb(0, 0, 0)" fill-opacity="1" text-anchor="start" opacity="1" cursor="pointer" pointer-events="all"></path>
                            </g>
                        </g>
                    </g>
                    <g transform="translate(0,0)" opacity="1">
                        <g transform="translate(0,0)" class="axis" data-datum="{&quot;_TYPE&quot;:&quot;axis&quot;,&quot;type&quot;:&quot;y&quot;,&quot;position&quot;:&quot;Weather&quot;}" opacity="1">
                            <g transform="translate(-354.12219451,-161.25)" opacity="1"><text id="mark3001" class=" mark axis-label" x="-44.6739501953125" y="4.622795573675017" data-datum="{&quot;_MARKID&quot;:&quot;axis-label&quot;,&quot;Weather&quot;:&quot;1_Cloudy&quot;}" stroke="none" stroke-opacity="1" stroke-width="1" stroke-linecap="round" stroke-linejoin="round" fill="rgb(82,82,82)" fill-opacity="1" text-anchor="start" opacity="1" font-family="Segoe UI" font-size="14px">Cloudy</text></g>
                            <g transform="translate(-354.12219451,-43.75)" opacity="1"><text id="mark3002" class=" mark axis-label" x="-86.4638671875" y="4.622795573675017" data-datum="{&quot;_MARKID&quot;:&quot;axis-label&quot;,&quot;Weather&quot;:&quot;2_Partly Cloudy&quot;}" stroke="none" stroke-opacity="1" stroke-width="1" stroke-linecap="round" stroke-linejoin="round" fill="rgb(82,82,82)" fill-opacity="1" text-anchor="start" opacity="1" font-family="Segoe UI" font-size="14px">Partly Cloudy</text></g>
                            <g transform="translate(-354.12219451,73.75)" opacity="1"><text id="mark3003" class=" mark axis-label" x="-28.699966430664062" y="4.622795573675017" data-datum="{&quot;_MARKID&quot;:&quot;axis-label&quot;,&quot;Weather&quot;:&quot;3_Rain&quot;}" stroke="none" stroke-opacity="1" stroke-width="1" stroke-linecap="round" stroke-linejoin="round" fill="rgb(82,82,82)" fill-opacity="1" text-anchor="start" opacity="1" font-family="Segoe UI" font-size="14px">Rain</text></g>
                            <g transform="translate(-354.12219451,191.25)" opacity="1"><text id="mark3004" class=" mark axis-label" x="-39.28395080566406" y="4.622795573675017" data-datum="{&quot;_MARKID&quot;:&quot;axis-label&quot;,&quot;Weather&quot;:&quot;4_Sunny&quot;}" stroke="none" stroke-opacity="1" stroke-width="1" stroke-linecap="round" stroke-linejoin="round" fill="rgb(82,82,82)" fill-opacity="1" text-anchor="start" opacity="1" font-family="Segoe UI" font-size="14px">Sunny</text></g>
                        </g>
                    </g>
                </g>
            </g>
            <g transform="translate(0,0)" opacity="1">
                <g transform="translate(24.43890274,-300)" opacity="1"><text x="-111.02393341064453" class="mark" data-datum="{&quot;_MARKID&quot;:&quot;title&quot;,&quot;title&quot;:&quot;title&quot;}" id="mark6001" y="51.254979615608626" stroke="none" stroke-opacity="1" stroke-width="1" stroke-linecap="round" stroke-linejoin="round" fill="rgb(0,0,0)" fill-opacity="1" text-anchor="start" opacity="1" font-family="Segoe UI" font-size="24px">September Weather</text>
                </g>
            </g>
        </g>
    </g>
</svg>